<svg xmlns="http://www.w3.org/2000/svg" width="160" height="30" viewBox="0 0 160 30" fill="none">
<path d="M14.084 6.09901V8.03102C13.496 7.16086 12.6962 6.45475 11.7598 5.97922C10.8235 5.5037 9.78147 5.27443 8.732 5.31301C3.839 5.27801 0 8.30302 0 14.078C0 19.954 3.671 23.013 8.631 22.978C10.498 22.944 13.131 21.992 14.084 20.021V22.57L18.184 22.135V5.66201L14.084 6.09901ZM9.107 19.174C7.78464 19.1369 6.52889 18.5855 5.60669 17.6371C4.68449 16.6886 4.16855 15.4179 4.16855 14.095C4.16855 12.7721 4.68449 11.5014 5.60669 10.553C6.52889 9.60451 7.78464 9.05313 9.107 9.01601C15.63 9.01601 15.63 19.174 9.107 19.174Z" fill="currentColor"/>
<path d="M29.0269 5.34611C27.9885 5.33155 26.961 5.55997 26.0265 6.01314C25.0921 6.46631 24.2765 7.13167 23.6449 7.95612V5.66211L19.5449 6.09711V29.4041L23.6449 28.9691V20.5761C24.8529 22.3471 27.4209 22.8761 29.1619 22.8761C34.5309 22.8761 37.6219 19.0041 37.6219 14.1121C37.6219 9.18612 34.1909 5.34611 29.0219 5.34611M28.7159 18.8681C28.087 18.8836 27.4616 18.7712 26.8775 18.5376C26.2934 18.304 25.7628 17.9541 25.3181 17.5093C24.8733 17.0644 24.5235 16.5338 24.2901 15.9496C24.0566 15.3655 23.9443 14.74 23.9599 14.1111C23.9599 12.8496 24.4611 11.6398 25.3531 10.7478C26.2451 9.85574 27.4549 9.35461 28.7164 9.35461C29.9779 9.35461 31.1878 9.85574 32.0798 10.7478C32.9718 11.6398 33.4729 12.8496 33.4729 14.1111C33.4884 14.74 33.376 15.3656 33.1424 15.9497C32.9088 16.5339 32.559 17.0645 32.1141 17.5093C31.6693 17.9542 31.1387 18.304 30.5545 18.5376C29.9704 18.7712 29.3449 18.8836 28.7159 18.8681Z" fill="currentColor"/>
<path d="M48.5504 5.34592C47.499 5.33059 46.459 5.56476 45.5156 6.02924C44.5722 6.49371 43.7524 7.17525 43.1234 8.01792V5.65892L39.0234 6.09392V29.4039L43.1234 28.9689V20.5109C44.3144 22.3329 46.9234 22.8759 48.6844 22.8759C54.0534 22.8759 57.1444 19.0039 57.1444 14.1119C57.1444 9.18493 53.7134 5.34592 48.5444 5.34592M48.2444 18.8669C47.6156 18.8824 46.9901 18.77 46.406 18.5364C45.8219 18.3028 45.2913 17.953 44.8466 17.5081C44.4018 17.0632 44.052 16.5326 43.8186 15.9485C43.5851 15.3643 43.4728 14.7388 43.4884 14.1099C43.4884 12.8484 43.9896 11.6386 44.8816 10.7466C45.7736 9.85455 46.9834 9.35342 48.2449 9.35342C49.5064 9.35342 50.7163 9.85455 51.6083 10.7466C52.5003 11.6386 53.0014 12.8484 53.0014 14.1099C53.0169 14.7388 52.9045 15.3644 52.6709 15.9485C52.4373 16.5327 52.0875 17.0633 51.6426 17.5081C51.1978 17.953 50.6672 18.3028 50.083 18.5364C49.4989 18.77 48.8734 18.8824 48.2444 18.8669Z" fill="currentColor"/>
<path d="M116.62 12.1751C114.481 12.0401 113.495 11.4281 113.495 10.3421C113.495 9.2881 114.582 8.6781 116.554 8.6781C117.309 8.63663 118.065 8.74742 118.777 9.0039C119.489 9.26037 120.142 9.6573 120.698 10.1711L123.008 7.4541C122.119 6.67551 121.086 6.07968 119.967 5.70064C118.847 5.32161 117.665 5.16682 116.486 5.2451C113.427 5.2451 109.419 6.6051 109.419 10.4771C109.419 14.2771 113.19 15.4371 116.35 15.6771C118.729 15.8141 119.68 16.2891 119.68 17.4441C119.68 18.6671 118.219 19.4831 116.656 19.4441C114.516 19.3596 112.473 18.5306 110.88 17.1001L108.842 20.0561C109.835 21.0911 111.044 21.8953 112.382 22.412C113.721 22.9286 115.156 23.1451 116.588 23.0461C121.379 23.0461 123.788 20.4981 123.788 17.5461C123.788 13.0951 119.779 12.3821 116.62 12.1771V12.1751Z" fill="currentColor"/>
<path d="M129.306 5.6521V22.1251L125.16 22.5661V6.0911L129.275 5.6521H129.306Z" fill="currentColor"/>
<path d="M129.306 0V3.594L125.16 4.035V0.439L129.306 0Z" fill="currentColor"/>
<path d="M143.184 22.144C142.097 22.5985 140.932 22.8409 139.753 22.858C136.116 22.995 133.738 20.922 133.738 16.742V9.22804H130.613L132.321 5.66204H133.738V1.46204L137.884 1.01904V5.66204H140.796V9.22804H137.85V16.742C137.805 17.0473 137.829 17.3588 137.92 17.6538C138.01 17.9489 138.165 18.2201 138.373 18.4478C138.581 18.6756 138.838 18.8541 139.123 18.9706C139.409 19.087 139.717 19.1384 140.025 19.121C140.723 19.1005 141.408 18.9263 142.03 18.611L143.184 22.144Z" fill="currentColor"/>
<path d="M151.425 5.21094C145.989 5.21094 142.525 8.87993 142.525 13.9759C142.525 19.3409 145.957 22.9099 151.732 22.9099C154.393 22.9693 156.974 21.9955 158.932 20.1929L156.281 17.5769C155.017 18.61 153.429 19.1629 151.796 19.1379C148.876 19.1379 147.074 17.6379 146.803 15.5719H159.881C160.528 8.67193 157.028 5.21094 151.425 5.21094ZM146.872 12.1429C147.157 11.1418 147.779 10.27 148.634 9.67542C149.488 9.08085 150.522 8.80015 151.559 8.88094C153.937 8.88094 155.636 9.96794 155.907 12.1429H146.872Z" fill="currentColor"/>
<path d="M87.9095 13.4319V22.1229L83.7635 22.5639V13.4319C83.7635 11.2239 82.8455 9.35488 80.6045 9.35488C78.3635 9.35488 76.9695 11.2899 76.9695 13.5009V22.1229L72.8235 22.5639V13.5009C72.8235 11.2909 71.6685 9.28688 69.3925 9.28688C67.2415 9.28688 65.9315 11.1339 65.8305 13.2359V22.1359L61.7305 22.5709V6.09088L65.7865 5.65888H65.8305V7.71188C66.2897 6.96632 66.9421 6.35889 67.7184 5.95397C68.4948 5.54906 69.3663 5.36174 70.2405 5.41188C71.2906 5.34706 72.3345 5.61389 73.2247 6.17465C74.1149 6.73541 74.8064 7.56174 75.2015 8.53688C75.7585 7.55714 76.5776 6.75207 77.5668 6.21206C78.556 5.67206 79.6762 5.41851 80.8015 5.47988C85.5585 5.47988 87.9015 8.39988 87.9015 13.4299" fill="currentColor"/>
<path d="M106.097 5.63989L106.063 5.72089L105.763 6.41089L96.0806 28.9019L91.3096 29.4089L94.4097 22.1969L87.8906 6.14689L92.5176 5.6559L92.5377 5.71189V5.72089L96.7496 17.1079L101.296 6.14989L106.097 5.63989Z" fill="currentColor"/>
</svg>
