<svg width="64" height="64" viewBox="0 0 64 64" fill="none" xmlns="http://www.w3.org/2000/svg">
<g clip-path="url(#clip0_30_5838)">
<path fill-rule="evenodd" clip-rule="evenodd" d="M64 4C64 1.79086 62.2091 0 60 0H4C1.79086 0 0 1.79086 0 4V60C0 62.2091 1.79086 64 4 64H60C62.2091 64 64 62.2091 64 60V4ZM13.7027 23.68V21.6064H14.55C14.5966 21.6064 14.6947 21.6109 14.8431 21.6192C14.9486 21.6211 15.0535 21.636 15.1553 21.664C15.2413 21.693 15.3284 21.7187 15.4164 21.7408C15.531 21.7709 15.614 21.8131 15.6648 21.8688L15.837 22.0544C15.9028 22.1268 15.9487 22.2149 15.9708 22.3104C15.9962 22.4128 16.009 22.528 16.009 22.656C16.0128 22.8074 15.9846 22.9579 15.9262 23.0976C15.8681 23.2243 15.7694 23.3279 15.6458 23.392C15.5336 23.4545 15.4188 23.5121 15.3018 23.5648C15.2042 23.6077 15.0533 23.6371 14.8495 23.6544C14.6456 23.6717 14.5074 23.68 14.4354 23.68H13.7027ZM11.2055 25.6H15.0533C15.5203 25.6 15.9516 25.5533 16.3465 25.4592C16.7322 25.3688 17.1017 25.2199 17.4423 25.0176C17.7781 24.8174 18.0431 24.5376 18.2386 24.1792C18.4342 23.8208 18.5316 23.3984 18.5316 22.912C18.5316 21.4445 17.8773 20.6253 16.5695 20.4544V20.4288C17.2747 20.0704 17.6269 19.4131 17.6269 18.4576C17.6269 16.7852 16.6758 15.9488 14.773 15.9488H11.2055V25.6ZM13.7027 19.7376V17.8688H13.8811C14.0556 17.8667 14.2301 17.8753 14.4036 17.8944C14.5555 17.9153 14.705 17.9518 14.8495 18.0032C15.0001 18.0504 15.129 18.1504 15.2127 18.2848C15.2934 18.4173 15.3337 18.5901 15.3337 18.8032C15.3337 19.1699 15.2106 19.4176 14.9641 19.5456C14.7176 19.6736 14.3908 19.7376 13.9831 19.7376H13.7027ZM27.2591 16.2496C26.4521 15.8355 25.5856 15.6286 24.6601 15.6286C23.7564 15.6234 22.8648 15.8364 22.0609 16.2496C21.2618 16.6566 20.5847 17.2683 20.0988 18.0224C19.5975 18.7904 19.3471 19.648 19.3471 20.5952C19.3471 22.1568 19.8458 23.4349 20.8441 24.4288C21.8425 25.4227 23.114 25.92 24.6601 25.92C26.2062 25.92 27.4777 25.4227 28.476 24.4288C29.4742 23.4349 29.9731 22.1568 29.9731 20.5952C29.9731 19.648 29.7227 18.7904 29.2213 18.0224C28.72 17.2544 28.0664 16.6637 27.2591 16.2496ZM23.6281 18.2528C23.956 18.121 24.3068 18.0557 24.6601 18.0608C25.0133 18.0557 25.364 18.1209 25.6921 18.2528C26.0203 18.3848 26.3191 18.5805 26.5712 18.8288C27.1063 19.3408 27.3739 19.9341 27.3739 20.608C27.3739 21.4272 27.1107 22.112 26.584 22.6624C26.0571 23.2128 25.4162 23.488 24.6601 23.488C23.9039 23.488 23.2631 23.2128 22.7362 22.6624C22.2093 22.112 21.9463 21.4272 21.9463 20.608C21.9463 19.9341 22.2139 19.3408 22.749 18.8288C23.0011 18.5805 23.2999 18.3848 23.6281 18.2528ZM38.5605 16.2496C37.7534 15.8355 36.887 15.6286 35.9613 15.6286C35.0576 15.6234 34.1661 15.8364 33.3622 16.2496C32.5631 16.6565 31.8861 17.2682 31.4001 18.0224C30.8987 18.7904 30.6483 19.648 30.6483 20.5952C30.6483 22.1568 31.1472 23.4349 32.1454 24.4288C33.1436 25.4227 34.4151 25.92 35.9613 25.92C37.5074 25.92 38.7791 25.4227 39.7773 24.4288C40.7755 23.4349 41.2743 22.1568 41.2743 20.5952C41.2743 19.648 41.0239 18.7904 40.5226 18.0224C40.0213 17.2544 39.3677 16.6637 38.5605 16.2496ZM34.9292 18.2528C35.2571 18.121 35.608 18.0557 35.9613 18.0608C36.3147 18.0557 36.6654 18.1209 36.9933 18.2528C37.3215 18.3847 37.6203 18.5805 37.8724 18.8288C38.4075 19.3408 38.6751 19.9341 38.6751 20.608C38.6751 21.4272 38.4121 22.112 37.8852 22.6624C37.3583 23.2128 36.7175 23.488 35.9613 23.488C35.2052 23.488 34.5642 23.2128 34.0374 22.6624C33.5107 22.112 33.2475 21.4272 33.2475 20.608C33.2475 19.9341 33.515 19.3408 34.0502 18.8288C34.3023 18.5806 34.6011 18.3848 34.9292 18.2528ZM47.9761 15.9488L44.9566 19.9296H44.931V15.9488H42.4337V25.6H44.931V21.4144H44.9566L48.1799 25.6H51.4162L47.2498 20.5184L51.0723 15.9488H47.9761ZM10.148 27.4688L13.6901 32.4864V37.12H16.1873V32.4864L19.7292 27.4688H16.7351L14.9387 30.0928L13.1422 27.4688H10.148ZM27.7307 27.7696C26.9234 27.3555 26.0571 27.1486 25.1314 27.1486C24.2278 27.1434 23.3361 27.3564 22.5322 27.7696C21.7331 28.1766 21.0561 28.7883 20.5701 29.5424C20.0688 30.3104 19.8184 31.168 19.8184 32.1152C19.8184 33.6768 20.3174 34.9549 21.3156 35.9488C22.3138 36.9427 23.5853 37.44 25.1314 37.44C26.6776 37.44 27.9491 36.9427 28.9475 35.9488C29.9457 34.9549 30.4445 33.6768 30.4445 32.1152C30.4445 31.168 30.1941 30.3104 29.6928 29.5424C29.1915 28.7744 28.5377 28.1838 27.7307 27.7696ZM24.0994 29.7728C24.4273 29.641 24.7781 29.5757 25.1314 29.5808C25.4847 29.5757 25.8355 29.6409 26.1635 29.7728C26.4917 29.9048 26.7905 30.1005 27.0426 30.3488C27.5777 30.8608 27.8453 31.4541 27.8453 32.128C27.8453 32.9472 27.5822 33.632 27.0554 34.1824C26.5285 34.7328 25.8877 35.008 25.1314 35.008C24.3754 35.008 23.7344 34.7328 23.2075 34.1824C22.6808 33.632 22.4176 32.9472 22.4176 32.128C22.4176 31.4541 22.6852 30.8608 23.2203 30.3488C23.4724 30.1005 23.7712 29.9048 24.0994 29.7728ZM39.9365 27.4688H37.4393V32.5504C37.4393 32.8576 37.4329 33.1136 37.4202 33.3184C37.4075 33.5232 37.3693 33.7536 37.3055 34.0096C37.2419 34.2656 37.1527 34.4704 37.0379 34.624C36.9233 34.7776 36.7557 34.9075 36.5346 35.0144C36.3137 35.1213 36.0505 35.1744 35.7447 35.1744C35.4389 35.1744 35.1759 35.1213 34.9548 35.0144C34.7337 34.9075 34.5663 34.7776 34.4515 34.624C34.3369 34.4704 34.2477 34.2656 34.1839 34.0096C34.1203 33.7536 34.082 33.5232 34.0693 33.3184C34.0565 33.1136 34.0502 32.8576 34.0502 32.5504V27.4688H31.5529V32.896C31.5529 33.6814 31.6147 34.3405 31.7377 34.8736C31.8607 35.4067 32.1347 35.8829 32.5596 36.3008C33.2813 37.0176 34.3433 37.376 35.7447 37.376C37.1463 37.376 38.2083 37.0176 38.93 36.3008C39.3549 35.8829 39.6289 35.4067 39.7517 34.8736C39.8747 34.3405 39.9365 33.6814 39.9365 32.896V27.4688ZM49.5051 37.12L46.4854 33.1648C47.1479 33.0451 47.664 32.7341 48.0335 32.2304C48.4029 31.7267 48.5877 31.1296 48.5877 30.4384C48.5877 29.4483 48.2819 28.7059 47.6704 28.2112C47.0587 27.7165 46.2516 27.4688 45.2495 27.4688H41.5165V37.12H44.0137V33.408H44.0391L46.3962 37.12H49.5051ZM44.0137 31.7952V29.3888H44.2557C45.4107 29.3888 45.9884 29.7901 45.9884 30.592C45.9884 31.3939 45.4107 31.7952 44.2557 31.7952H44.0137ZM11.2056 38.9888V48.64H14.7475C16.0899 48.64 17.2384 48.1728 18.194 47.2384C19.1495 46.304 19.6274 45.163 19.6274 43.8144C19.6274 42.4659 19.1495 41.3248 18.194 40.3904C17.2384 39.456 16.0899 38.9888 14.7475 38.9888H11.2055H11.2056ZM13.7027 46.5152V41.1136H14.2888C15.1125 41.1136 15.775 41.3523 16.2765 41.8304C16.7778 42.3085 17.0282 42.9696 17.0282 43.8144C17.0282 44.7104 16.767 45.3843 16.2445 45.8368C15.7222 46.2894 15.0615 46.5152 14.2634 46.5152H13.7027ZM22.5706 48.64L23.2331 46.9632H26.6732L27.2975 48.64H29.9603L26.3419 38.9888H23.6153L19.9204 48.64H22.5706ZM24.9786 41.9712L25.9979 45.0432H23.921L24.9531 41.9712H24.9786ZM33.7954 48.64V41.1136H35.8595V38.9888H29.2341V41.1136H31.2981V48.64H33.7954ZM37.7832 48.64L38.4459 46.9632H41.8858L42.5101 48.64H45.1731L41.5547 38.9888H38.8281L35.1332 48.64H37.7832ZM40.1913 41.9712L41.2107 45.0432H39.1338L40.1659 41.9712H40.1913Z" fill="#0E1E34"/>
</g>
<defs>
<clipPath id="clip0_30_5838">
<rect width="64" height="64" fill="white"/>
</clipPath>
</defs>
</svg>
