<?xml version="1.0" encoding="UTF-8"?> <svg xmlns="http://www.w3.org/2000/svg" viewBox="0 0 250 54" width="250" height="54"><style> tspan { white-space:pre } .shp0 { fill: #3e3f54 } </style><g id="Layer"><path id="Layer" class="shp0" d="M33.99 14.3C33.99 14.3 26.57 19.84 25.78 30.88C25.78 30.88 32.5 26.1 33.99 14.3Z"></path><path id="Layer" class="shp0" d="M10.66 31.18C10.66 31.18 17.32 27.92 24.98 31.18C24.98 31.18 19.37 35.1 10.66 31.18Z"></path><path id="Layer" class="shp0" d="M46.66 12.6L55.62 14.1L51.51 6.06L50.64 10.01L49.51 11.33L46.66 12.6Z"></path><path id="Layer" class="shp0" d="M18.77 9.48C18.77 9.48 36.69 4.36 43.7 21.54C45.91 26.95 46.26 33.06 43.3 38.27C40.87 42.55 36.7 45.67 32.17 47.43C26.24 49.73 19.73 49.1 14.21 46C8.28 42.68 3.52 36.93 2.54 30.05C1.64 23.76 3.8 17.28 7.44 12.19C10.86 7.4 15.83 3.44 21.56 1.88C22.84 1.53 24.15 1.31 25.48 1.24C36.99 0.64 45.61 7.45 49.51 11.33L50.11 12.02L51.39 10.44L50.81 9.98C50.81 9.98 38.55 -0.22 25.48 0.34C19.66 0.58 14.04 3.04 9.59 6.76C5.06 10.55 1.62 15.78 0.46 21.63C-0.75 27.73 0.49 34.34 3.64 39.68C6.34 44.23 10.52 47.72 15.39 49.73C17.8 50.72 20.34 51.36 22.92 51.68C28.09 52.32 33.36 50.87 37.69 48.01C41.74 45.34 44.96 41.49 47.16 37.15C46.09 41.24 42.61 45.81 38.55 48.51C29.72 54.38 18.45 53.61 9.83 47.77C7.59 46.26 5.52 44.49 3.62 42.56C4.13 43.08 4.46 44.01 4.91 44.6C6.22 46.31 7.85 47.77 9.63 48.97C15.26 52.77 22.8 54.52 29.51 53.3C35.76 52.18 41.48 48.53 45.15 43.32C50.95 35.07 50.49 22.99 44.38 15.02C44.28 14.88 44.16 14.74 44.05 14.6C39.05 8.38 29.18 3.85 18.77 9.48Z"></path><path id="Layer" fill-rule="evenodd" class="shp0" d="M65.44 20.31C67.26 20.31 68.66 20.53 69.63 20.96C70.61 21.39 71.38 22.06 71.94 22.95C72.51 23.85 72.79 24.84 72.79 25.94C72.79 26.96 72.54 27.89 72.05 28.72C71.55 29.56 70.82 30.24 69.86 30.76C71.05 31.17 71.97 31.65 72.61 32.19C73.25 32.74 73.75 33.4 74.11 34.18C74.47 34.95 74.65 35.79 74.65 36.7C74.65 38.54 73.97 40.1 72.63 41.38C71.28 42.65 69.48 43.29 67.22 43.29L60.93 43.29L60.93 20.31L65.44 20.31ZM63.17 29.92L64.48 29.92C66.07 29.92 67.24 29.77 67.99 29.47C68.74 29.18 69.33 28.71 69.77 28.07C70.21 27.43 70.43 26.72 70.43 25.94C70.43 24.88 70.06 24.06 69.33 23.46C68.59 22.86 67.42 22.56 65.82 22.56L63.17 22.56L63.17 29.92ZM63.17 41.04L66.01 41.04C67.68 41.04 68.91 40.88 69.69 40.55C70.47 40.22 71.1 39.71 71.57 39.01C72.04 38.31 72.28 37.56 72.28 36.75C72.28 35.73 71.95 34.84 71.28 34.08C70.62 33.32 69.7 32.79 68.54 32.51C67.76 32.33 66.4 32.23 64.47 32.23L63.17 32.23L63.17 41.04Z"></path><path id="Layer" class="shp0" d="M77.26 26.3L79.44 26.3L79.44 34.23C79.44 36.17 79.55 37.5 79.76 38.23C80.07 39.27 80.66 40.1 81.54 40.7C82.42 41.3 83.47 41.61 84.68 41.61C85.9 41.61 86.93 41.31 87.78 40.72C88.63 40.14 89.21 39.36 89.53 38.4C89.75 37.75 89.86 36.36 89.86 34.23L89.86 26.3L92.09 26.3L92.09 34.64C92.09 36.98 91.81 38.75 91.27 39.93C90.72 41.12 89.9 42.05 88.81 42.72C87.71 43.39 86.34 43.73 84.69 43.73C83.04 43.73 81.66 43.39 80.56 42.72C79.45 42.05 78.63 41.11 78.08 39.91C77.53 38.71 77.26 36.9 77.26 34.48L77.26 26.3L77.26 26.3Z"></path><path id="Layer" fill-rule="evenodd" class="shp0" d="M111.92 43.29L109.78 43.29L109.78 40.37C108.86 41.49 107.84 42.32 106.7 42.89C105.56 43.45 104.32 43.73 102.97 43.73C100.57 43.73 98.53 42.86 96.83 41.11C95.13 39.37 94.28 37.25 94.28 34.75C94.28 32.3 95.14 30.21 96.85 28.47C98.57 26.73 100.63 25.86 103.03 25.86C104.42 25.86 105.68 26.16 106.81 26.75C107.93 27.34 108.92 28.23 109.78 29.42L109.78 19.73L111.92 19.73L111.92 43.29ZM103.21 27.97C102 27.97 100.88 28.27 99.85 28.86C98.83 29.46 98.01 30.3 97.4 31.39C96.8 32.47 96.49 33.61 96.49 34.82C96.49 36.01 96.8 37.16 97.41 38.25C98.02 39.34 98.84 40.19 99.88 40.8C100.91 41.41 102.01 41.72 103.2 41.72C104.39 41.72 105.52 41.41 106.59 40.81C107.66 40.21 108.48 39.39 109.05 38.36C109.63 37.33 109.92 36.17 109.92 34.88C109.92 32.91 109.27 31.27 107.98 29.95C106.69 28.63 105.1 27.97 103.21 27.97Z"></path><path id="Layer" fill-rule="evenodd" class="shp0" d="M132.49 43.29L130.34 43.29L130.34 40.37C129.43 41.49 128.41 42.32 127.27 42.89C126.13 43.45 124.89 43.73 123.54 43.73C121.14 43.73 119.1 42.86 117.4 41.11C115.7 39.37 114.85 37.25 114.85 34.75C114.85 32.3 115.71 30.21 117.42 28.47C119.13 26.73 121.19 25.86 123.6 25.86C124.99 25.86 126.25 26.16 127.38 26.75C128.5 27.34 129.49 28.23 130.34 29.42L130.34 19.73L132.49 19.73L132.49 43.29ZM123.78 27.97C122.57 27.97 121.45 28.27 120.42 28.86C119.4 29.46 118.58 30.3 117.97 31.39C117.37 32.47 117.06 33.61 117.06 34.82C117.06 36.01 117.37 37.16 117.98 38.25C118.59 39.34 119.41 40.19 120.45 40.8C121.48 41.41 122.58 41.72 123.77 41.72C124.96 41.72 126.09 41.41 127.16 40.81C128.22 40.21 129.05 39.39 129.62 38.36C130.2 37.33 130.48 36.17 130.48 34.88C130.48 32.91 129.84 31.27 128.55 29.95C127.26 28.63 125.67 27.97 123.78 27.97Z"></path><path id="Layer" class="shp0" d="M134.33 26.3L136.64 26.3L142.46 39.38L148.11 26.3L150.43 26.3L140.33 49.51L138.02 49.51L141.28 42.01L134.33 26.3Z"></path><path id="Layer" fill-rule="evenodd" class="shp0" d="M164.62 20.06L169.25 20.06C171.75 20.06 173.55 20.29 174.66 20.76C175.76 21.22 176.64 21.97 177.27 23.01C177.91 24.04 178.23 25.28 178.23 26.73C178.23 28.34 177.81 29.67 176.98 30.73C176.14 31.79 175.01 32.53 173.58 32.95C172.74 33.19 171.2 33.31 168.98 33.31L168.98 43.04L164.62 43.04L164.62 20.06ZM168.98 29.05L170.37 29.05C171.46 29.05 172.22 28.97 172.64 28.81C173.07 28.65 173.4 28.39 173.65 28.03C173.89 27.67 174.01 27.24 174.01 26.72C174.01 25.84 173.67 25.19 172.98 24.78C172.49 24.48 171.56 24.33 170.21 24.33L168.98 24.33L168.98 29.05Z"></path><path id="Layer" class="shp0" d="M180.74 26.04L185.04 26.04L185.04 34.23C185.04 35.82 185.15 36.93 185.36 37.55C185.58 38.17 185.93 38.65 186.42 39C186.9 39.34 187.5 39.51 188.2 39.51C188.91 39.51 189.51 39.34 190.01 39C190.5 38.67 190.87 38.17 191.11 37.51C191.28 37.02 191.37 35.98 191.37 34.37L191.37 26.04L195.62 26.04L195.62 33.25C195.62 36.22 195.39 38.25 194.92 39.34C194.35 40.67 193.51 41.7 192.4 42.41C191.29 43.12 189.88 43.48 188.17 43.48C186.31 43.48 184.81 43.06 183.66 42.23C182.51 41.4 181.7 40.24 181.24 38.75C180.91 37.72 180.74 35.84 180.74 33.12L180.74 26.04L180.74 26.04Z"></path><path id="Layer" class="shp0" d="M197.98 26.04L202.23 26.04L202.23 27.79C203.19 26.97 204.07 26.4 204.85 26.09C205.63 25.77 206.43 25.61 207.25 25.61C208.93 25.61 210.35 26.2 211.53 27.37C212.51 28.37 213 29.85 213 31.81L213 43.04L208.8 43.04L208.8 35.6C208.8 33.57 208.71 32.22 208.53 31.56C208.34 30.89 208.03 30.38 207.58 30.04C207.13 29.69 206.57 29.51 205.91 29.51C205.05 29.51 204.31 29.8 203.7 30.38C203.08 30.96 202.65 31.76 202.41 32.78C202.29 33.3 202.23 34.46 202.23 36.22L202.23 43.04L197.98 43.04L197.98 26.04L197.98 26.04Z"></path><path id="Layer" class="shp0" d="M232.42 29.48L228.88 31.43C228.22 30.74 227.56 30.25 226.91 29.98C226.26 29.71 225.5 29.58 224.63 29.58C223.03 29.58 221.75 30.05 220.77 31C219.79 31.95 219.29 33.17 219.29 34.66C219.29 36.11 219.77 37.29 220.71 38.2C221.66 39.12 222.9 39.57 224.44 39.57C226.34 39.57 227.82 38.92 228.88 37.62L232.23 39.92C230.42 42.29 227.85 43.48 224.54 43.48C221.56 43.48 219.23 42.59 217.54 40.82C215.86 39.05 215.01 36.98 215.01 34.61C215.01 32.96 215.42 31.45 216.24 30.06C217.06 28.67 218.21 27.59 219.68 26.79C221.14 26 222.79 25.61 224.6 25.61C226.28 25.61 227.8 25.94 229.13 26.61C230.47 27.29 231.57 28.24 232.42 29.48Z"></path><path id="Layer" class="shp0" d="M234.99 19.48L239.21 19.48L239.21 27.76C240.04 27.04 240.88 26.51 241.72 26.15C242.56 25.79 243.41 25.61 244.27 25.61C245.95 25.61 247.37 26.19 248.52 27.36C249.51 28.37 250 29.85 250 31.81L250 43.04L245.81 43.04L245.81 35.59C245.81 33.62 245.72 32.29 245.53 31.59C245.34 30.89 245.03 30.37 244.57 30.03C244.12 29.69 243.56 29.51 242.9 29.51C242.04 29.51 241.3 29.8 240.68 30.37C240.06 30.95 239.64 31.73 239.4 32.72C239.27 33.23 239.21 34.39 239.21 36.21L239.21 43.04L234.99 43.04L234.99 19.48Z"></path></g></svg> 