<svg xmlns="http://www.w3.org/2000/svg" width="133" height="31" viewBox="0 0 133 31" fill="none">
<path d="M50.9101 29.1941C50.9101 29.2874 50.7746 29.3562 50.5026 29.3984C49.9885 29.4795 48.6949 29.5217 46.623 29.5217C44.8475 29.5217 43.6417 29.4795 43.0043 29.3984C42.7067 29.3562 42.5357 29.324 42.4969 29.2974C42.4158 29.2552 42.3214 29.1219 42.2115 28.8877C42.0083 28.3591 41.7107 27.5696 41.3166 26.5192C40.7891 25.159 39.9619 23.1504 38.836 20.4966C38.5939 19.967 38.031 19.675 37.1483 19.6194C37.5558 19.645 36.8573 19.6616 35.0563 19.6616C34.852 19.6616 34.7521 20.0092 34.7521 20.7043C34.7521 21.6303 34.8365 23.0105 35.0075 24.8504C35.1751 26.6891 35.2628 28.0693 35.2628 28.9954C35.2628 29.2263 35.2018 29.3629 35.0785 29.4051C34.8875 29.4173 34.6999 29.4306 34.51 29.4473C33.7106 29.5017 32.4625 29.5283 30.7714 29.5283C28.8349 29.5283 27.6668 29.4861 27.276 29.4051C26.8818 29.324 26.6875 29.1119 26.6875 28.7711C26.6875 27.2732 26.7586 25.0158 26.9007 21.9912C27.0428 18.9699 27.1139 16.7014 27.1139 15.1913C27.1139 9.43406 26.9851 4.94152 26.7297 1.7148L26.7097 1.42943C26.6975 1.19848 26.9107 1.04192 27.3504 0.957527C27.7901 0.876471 29.8598 0.795414 33.5584 0.714357C36.0645 0.658839 38.0632 0.633301 39.5544 0.633301C42.6423 0.633301 45.164 1.33505 47.1138 2.73522C49.3223 4.31416 50.4249 6.59485 50.4249 9.57396C50.4249 11.5626 50.1406 13.1471 49.571 14.3297C49.0025 15.5155 47.951 16.6659 46.422 17.7807C46.1111 17.9983 45.9534 18.2026 45.9534 18.3947C45.9534 18.3814 46.7807 20.0902 48.4329 23.5213C50.0862 26.9523 50.9134 28.8432 50.9134 29.1963L50.9101 29.1941ZM42.3736 10.8764C42.3736 9.21642 41.8307 8.06609 40.7469 7.42651C39.9064 6.93573 38.5939 6.69256 36.8051 6.69256C35.5182 6.69256 34.8331 6.89021 34.7521 7.28328C34.671 7.74852 34.6288 9.07985 34.6288 11.2861C34.6288 11.5982 34.6355 12.0623 34.6488 12.673C34.661 13.287 34.6677 13.7423 34.6677 14.041C34.6677 14.1087 34.8842 14.1775 35.3184 14.2453C36.1456 14.3696 37.0128 14.4307 37.9177 14.4307C40.8857 14.4307 42.367 13.2448 42.367 10.8764H42.3736Z" fill="currentColor"/>
<path d="M82.5984 28.8906C82.5984 29.1349 82.4308 29.307 82.091 29.4014C81.6835 29.508 80.4254 29.5635 78.3113 29.5635C76.3748 29.5635 75.1257 29.508 74.5727 29.4014C74.1108 29.307 73.8199 28.9983 73.7 28.482C73.2414 26.5222 72.8783 25.4729 72.6229 25.3363C72.4064 25.2419 70.5898 25.1942 67.1777 25.1942C64.8759 25.1942 63.6467 25.2553 63.4979 25.3785C63.2692 25.5961 63.0105 26.3245 62.7251 27.5659C62.4664 28.6963 62.1566 29.307 61.7913 29.4047C61.3316 29.5113 59.786 29.5668 57.1578 29.5668C55.0847 29.5668 54.0465 29.368 54.0465 28.975C54.0465 28.6208 55.5755 24.2715 58.6379 15.9282C61.959 6.90314 63.76 1.94203 64.0442 1.04153C64.2063 0.525206 64.3973 0.265381 64.6139 0.265381C64.9792 0.265381 65.5454 0.300913 66.3116 0.366424C67.0778 0.434156 67.6507 0.466357 68.0282 0.466357C68.4069 0.466357 68.9343 0.44415 69.6449 0.395294C70.3567 0.346438 70.8874 0.32423 71.2394 0.32423C71.4981 0.32423 71.7346 0.548524 71.9511 0.996001C72.614 2.42615 74.5505 7.32508 77.765 15.6972C80.9884 24.1249 82.6018 28.5208 82.6018 28.8873L82.5984 28.8906ZM68.1903 10.2875C67.9061 10.886 67.4242 12.1851 66.748 14.1871C66.0174 16.3113 65.652 17.556 65.652 17.9224C65.652 18.1667 66.0595 18.3033 66.8712 18.3321C67.2909 18.3577 67.9827 18.3743 68.9432 18.3743C69.8392 18.3743 70.3311 18.2677 70.4277 18.0468C70.4533 17.9779 70.4699 17.8835 70.4699 17.7603C70.4699 17.3117 70.159 16.0748 69.535 14.0439C68.9243 12.0841 68.4779 10.8305 68.1937 10.2875H68.1903Z" fill="currentColor"/>
<path d="M87.6112 29.3962C87.3658 29.3995 87.1649 29.1941 87.1748 28.9476C87.2237 27.8139 87.2559 26.095 87.2681 23.7888C87.2814 21.2283 87.2559 19.3962 87.1882 18.2947C87.1848 18.227 87.1649 18.1648 87.1293 18.106L77.1471 0.98524C76.9795 0.695435 77.1893 0.332346 77.5224 0.335677C79.2302 0.347891 80.6626 0.329015 81.8229 0.329015C82.9843 0.329015 84.4556 0.354553 86.1045 0.332346C86.2788 0.332346 86.4376 0.432279 86.5086 0.592171C87.126 2.02787 87.9288 4.63057 88.9181 6.40049C89.7875 7.95722 90.5281 9.37627 91.1455 10.6565C91.301 10.9785 91.7573 10.9785 91.915 10.6565C93.1086 8.27257 94.0846 6.38495 94.8486 4.99033C95.6081 3.60681 96.1677 1.56374 96.533 0.607716C96.5974 0.438941 96.7595 0.325684 96.9405 0.329015C98.5605 0.347891 100.118 0.325684 101.616 0.325684C102.36 0.325684 103.637 0.347891 105.448 0.332346C105.778 0.332346 105.991 0.686552 105.829 0.975247L98.1464 14.7404C96.5452 17.382 95.7502 18.7622 95.7602 18.8865L95.7535 19.0909L95.7669 19.2952L95.7602 19.5006L95.8246 22.6029C95.8635 24.5294 95.9345 26.6447 96.0311 28.9409C96.0411 29.1885 95.8446 29.3962 95.5947 29.3928C93.9003 29.3695 92.5746 29.3573 91.6174 29.3573C90.6603 29.3573 89.299 29.3695 87.6079 29.3928L87.6112 29.3962Z" fill="currentColor"/>
<path d="M132.956 15.1098C132.956 19.357 131.607 22.9168 128.91 25.7893C126.158 28.704 122.68 30.1586 118.466 30.1586C114.253 30.1586 110.805 28.6907 108.041 25.7471C105.331 22.8746 103.977 19.327 103.977 15.1098C103.977 10.8926 105.331 7.34502 108.041 4.45475C110.805 1.51118 114.253 0.0432943 118.466 0.0432943C122.68 0.0432943 126.158 1.51118 128.91 4.45475C131.607 7.34502 132.956 10.8926 132.956 15.1098ZM124.168 15.1098C124.168 13.3076 123.718 11.7831 122.819 10.5361C121.92 9.28909 120.545 8.66728 118.695 8.66728C116.846 8.66728 115.414 9.26909 114.401 10.4739C113.388 11.6787 112.881 13.2232 112.881 15.1098C112.881 16.9964 113.388 18.5409 114.401 19.7457C115.414 20.9505 116.846 21.5524 118.695 21.5524C120.545 21.5524 121.92 20.9305 122.819 19.6835C123.718 18.4365 124.168 16.912 124.168 15.1098Z" fill="currentColor"/>
<path d="M22.3044 16.7546C21.9136 20.5353 20.4179 23.6132 17.8208 25.9817C15.0815 28.4845 11.6306 29.737 7.46553 29.737C5.14702 29.737 3.24952 29.3861 1.77157 28.6878C0.582979 28.1181 -0.0111141 27.48 7.17053e-05 26.7728C7.17053e-05 26.2398 0.382174 25.4336 1.14616 24.3566C1.91015 23.2795 2.50206 22.5234 2.92289 22.0893C3.47811 21.5196 3.89894 21.2342 4.18319 21.2342C4.42853 21.2342 4.85157 21.4252 5.45459 21.8061C6.20082 22.2669 6.76715 22.5878 7.15727 22.7666C7.88575 23.1009 8.71091 23.2684 9.63275 23.2684C11.3105 23.2684 12.6308 22.7344 13.5915 21.6663C14.5522 20.5982 15.0326 19.2458 15.0326 17.6114C15.0326 17.0539 14.9438 16.3978 14.7661 15.6439C14.514 14.5669 14.1728 13.6596 13.7408 12.9225C13.2379 12.0574 12.6008 11.2801 11.8302 10.5918C11.0606 9.90351 10.1743 9.24189 9.17136 8.60675C8.09615 7.92289 7.28432 7.38324 6.73354 6.98462C5.56162 6.15279 4.46644 5.10981 3.44574 3.85389C2.42504 2.5991 1.91459 1.49947 1.91459 0.55762C1.91459 0.356637 2.29138 0.234945 3.04428 0.187422C4.3113 0.0864825 5.6927 0.0354687 7.18727 0.0354687C11.0961 0.0354687 14.4927 1.05396 17.3719 3.08759C20.0845 4.97743 21.9292 7.67529 22.9077 11.1785C23.2812 12.471 23.4678 13.9145 23.4678 15.5122C23.4678 15.9286 23.4145 16.3461 23.3068 16.7635L22.3044 16.7546Z" fill="currentColor"/>
</svg>
