<svg xmlns="http://www.w3.org/2000/svg" viewBox="0 0 383.49 140" fill="none">
  <path fill="currentColor" fill-rule="evenodd" d="M83.96,8.99c-6.35,0-17.38,5.16-17.38,11.58V59.88c-6.78-3.28-14.34-4.61-21.83-3.82-19.81,2.1-35.34,18.89-36.13,39.05-.5,12.05,4.32,23.71,13.17,31.89,8.83,8.14,20.83,11.92,32.74,10.32,18.75-2.5,33.18-18.38,34.88-37.7,.11-.66,.17-1.32,.17-1.99,0-.33,0-.65,0-.97,0-.29,0-.58,0-.87V20.57c0-6.42,.73-11.58-5.62-11.58ZM51.53,114.27c-5.17,.75-10.4-.89-14.23-4.45-3.83-3.54-5.91-8.58-5.7-13.79,.41-8.64,6.96-15.74,15.54-16.85,.64-.07,1.28-.1,1.92-.1,5.63-.02,10.92,2.71,14.18,7.3,2.01,3.05,3.15,6.59,3.31,10.24-.37,9.02-6.71,16.54-15.03,17.65Z"/>
  <path fill="currentColor" fill-rule="evenodd" d="M371.12,50.95c-7.67-.03-13.67-7.07-11.97-15.02,.99-4.65,4.77-8.4,9.43-9.35,7.97-1.62,14.94,4.44,14.91,12.1v.04c-.05,6.76-5.61,12.25-12.37,12.22h0Z"/>
  <path fill="currentColor" fill-rule="evenodd" d="M339.26,53.86v3.35h14.7v19.67h-14.7v53.77h-20.95v-53.77h-12.08v-19.67h12.08v-2.04c0-10.64,2.91-18.21,8.59-22.73,4.22-3.64,11.06-5.39,20.22-5.39,2.92,.03,5.84,.27,8.73,.73v18.07c-2.13-.57-4.34-.81-6.55-.73-6.98,0-10.03,2.48-10.03,8.74h0Z"/>
  <path fill="currentColor" d="M293.28,66.39c-16.27-15.15-41.49-15.15-57.77,0-7.7,7.06-11.99,17.1-11.79,27.54-.18,10.48,4.11,20.55,11.79,27.69,7.81,7.39,18.21,11.42,28.96,11.22,10.7,.17,21.04-3.86,28.81-11.22,7.78-7.08,12.13-17.17,11.93-27.69,.22-10.48-4.14-20.54-11.93-27.54Zm-15.28,41.24c-7.51,7.38-19.55,7.38-27.07,0-3.64-3.62-5.63-8.57-5.53-13.7-.1-5.09,1.9-9.99,5.53-13.55,.09-.09,.17-.18,.26-.26,7.47-7.33,19.47-7.21,26.8,.26h0c3.63,3.57,5.63,8.47,5.53,13.55,.07,5.12-1.92,10.06-5.53,13.7Z"/>
  <path fill="currentColor" fill-rule="evenodd" d="M110.52,50.93c-7.67-.03-13.67-7.07-11.97-15.02,.99-4.65,4.77-8.4,9.43-9.35,7.97-1.62,14.94,4.44,14.91,12.1v.05c-.05,6.76-5.61,12.26-12.37,12.23h0v-.02Z"/>
  <rect fill="currentColor" x="99.75" y="57.22" width="21.68" height="73.44"/>
  <rect fill="currentColor" x="360.35" y="57.22" width="21.68" height="73.44"/>
  <path fill="currentColor" d="M156.94,57.22V29.09h-21.1v28.12h-9.61v19.67h9.61v29.44c0,17.49,8.44,26.23,25.32,26.23,3.57,.09,7.14-.25,10.62-1.02v-19.23c-1.82,.35-3.67,.54-5.53,.58-6.55,0-9.31-2.77-9.31-9.76v-26.23h11.9v-19.67h-11.9Z"/>
  <path fill="currentColor" d="M223.52,76.89v-19.67h-16.31V29.09h-21.09v28.12h-11.81v19.67h11.81v29.44c0,17.49,8.44,26.23,25.32,26.23,3.57,.09,7.14-.25,10.62-1.02v-19.24c-1.82,.35-3.67,.54-5.53,.58-6.55,0-9.31-2.77-9.31-9.76h-.01s0-26.22,0-26.22h16.31Z"/>
  <path fill="currentColor" fill-rule="evenodd" d="M54.54,137.31c18.75-2.5,33.18-18.38,34.88-37.7,.11-.66,.17-1.32,.17-1.99,0-.33,0-.65,0-.97,0-.29,0-.58,0-.87V20.57c0-6.42,.73-11.58-5.62-11.58s-17.38,5.16-17.38,11.58V59.88c-6.78-3.28-14.34-4.61-21.83-3.82-19.81,2.1-35.34,18.89-36.13,39.05-.5,12.05,4.32,23.71,13.17,31.89,8.83,8.14,20.83,11.92,32.74,10.32Zm-22.93-41.29c.41-8.64,6.96-15.74,15.54-16.85,.64-.07,1.28-.1,1.92-.1,5.63-.02,10.92,2.71,14.18,7.3,2.01,3.05,3.15,6.59,3.31,10.24-.37,9.02-6.71,16.54-15.03,17.65-5.17,.75-10.4-.89-14.23-4.45-3.83-3.54-5.91-8.58-5.7-13.79Zm-12.27,39.5l-.8-.6c-5.17-3.82-12.45-2.72-16.26,2.44-3.58,4.85-2.86,11.64,1.66,15.63,.19,.16,.39,.32,.59,.48l.98,.73c5.16,3.82,12.44,2.74,16.26-2.42,3.82-5.16,2.74-12.44-2.42-16.26Zm68.21,7.37c-3.12-5.51-10.12-7.44-15.63-4.32-.03,.02-.06,.04-.09,.05-9,5.13-19.41,7.21-29.69,5.95-6.32-.79-11.19,.72-13,10.04-.65,3.92,.88,7.88,3.98,10.35,1.68,1.41,3.73,2.3,5.91,2.57,15.27,1.88,30.74-1.22,44.11-8.85,5.56-3.16,7.53-10.21,4.42-15.8Z"/>
</svg>
