<?xml version="1.0" encoding="UTF-8"?>
<svg xmlns="http://www.w3.org/2000/svg" version="1.1" viewBox="0 0 130.6 32">
  <defs>
    <style>
      .cls-1 {
        fill: #46008d;
      }
    </style>
  </defs>
  <!-- Generator: Adobe Illustrator 28.7.1, SVG Export Plug-In . SVG Version: 1.2.0 Build 142)  -->
  <g>
    <g id="Layer_1">
      <path class="cls-1" d="M48.5,8.4c.2-.5,0-.7-.5-.4l-22.8,13.2,14.6,8.4,8.7-21.1Z"/>
      <path class="cls-1" d="M.6,9.1c-.5-.3-.7,0-.5.4l7.1,17.7s.6,1.7.8,2.2q.5,1.2,1.9.7c1.4-.5,2.9-.9,4.4-1.2,1.1-.2,2.1-.3,3.2-.3,2.7.1,5.4.7,8,1.7,2.4.9,5,1.5,7.6,1.6,1.9,0,3.8-.3,5.6-.8L.6,9.1Z"/>
      <path class="cls-1" d="M22.1,19.3V5.5c0-.5-.4-.7-.8-.4l-10.7,7.6,11.5,6.6Z"/>
      <path class="cls-1" d="M24,19.3V5.5c0-.5.4-.7.8-.4l10.7,7.6-11.5,6.6Z"/>
      <path class="cls-1" d="M67.2.7c0-.2,0-.4.2-.5.1-.1.3-.2.5-.2h3.4c.2,0,.4,0,.5.2.1.1.2.3.2.5v30.5c0,.2,0,.4-.2.5-.1.1-.3.2-.5.2h-3.4c-.2,0-.4,0-.5-.2-.1-.1-.2-.3-.2-.5V.7Z"/>
      <path class="cls-1" d="M84.5,27.1c-1.2,0-2.3-.3-3.2-1-1-.6-1.7-1.5-2.1-2.6-.4-1.1-.6-2.2-.3-3.4.2-1.1.8-2.2,1.6-3,.8-.8,1.9-1.4,3-1.6,1.1-.2,2.3-.1,3.4.3,1.1.4,2,1.2,2.6,2.1.6,1,1,2.1,1,3.2s-.6,3-1.7,4.1c-1.1,1.1-2.6,1.7-4.1,1.7ZM84.5,10.7c-2.1,0-4.2.6-5.9,1.8-1.8,1.2-3.1,2.8-3.9,4.8-.8,1.9-1,4.1-.6,6.2.4,2.1,1.4,4,2.9,5.5,1.5,1.5,3.4,2.5,5.5,2.9,2.1.4,4.2.2,6.2-.6,2-.8,3.6-2.2,4.8-3.9,1.2-1.8,1.8-3.8,1.8-5.9,0-1.4-.3-2.8-.8-4.1-.5-1.3-1.3-2.5-2.3-3.5-1-1-2.2-1.8-3.5-2.3-1.3-.5-2.7-.8-4.1-.8"/>
      <path class="cls-1" d="M107.5,27.1c-1.2,0-2.3-.3-3.2-1-1-.6-1.7-1.5-2.2-2.6-.4-1.1-.6-2.2-.3-3.4s.8-2.2,1.6-3c.8-.8,1.9-1.4,3-1.6,1.1-.2,2.3-.1,3.4.3,1.1.4,2,1.2,2.6,2.1.6,1,1,2.1,1,3.2s-.6,3-1.7,4.1c-1.1,1.1-2.6,1.7-4.1,1.7ZM117.6,11.5l-3.3,1.6c-1.5-1.2-3.4-2.1-5.3-2.3-2-.3-4,0-5.8.8-1.8.8-3.4,2.1-4.5,3.7-1.1,1.6-1.8,3.5-1.9,5.5-.1,2,.3,3.9,1.3,5.7.9,1.7,2.3,3.2,4.1,4.2,1.7,1,3.7,1.5,5.6,1.4,2,0,3.9-.6,5.6-1.7v1c0,.2,0,.4.2.5.1.1.3.2.5.2h3.4c0,0,.2,0,.3,0,0,0,.2,0,.2-.2,0,0,.1-.1.2-.2,0,0,0-.2,0-.3V11.8c0,0,0-.2,0-.2,0,0,0-.1-.2-.2,0,0-.2,0-.2,0,0,0-.2,0-.2,0"/>
      <path class="cls-1" d="M64.8,0c-2.3.2-4.5,1.2-6.1,2.9-1.6,1.7-2.5,3.9-2.5,6.3v1.5h-2.2c-.2,0-.4,0-.5.2-.1.1-.2.3-.2.5v3.4c0,.2,0,.4.2.5.1.1.3.2.5.2h2.2v15.8c0,.2,0,.4.2.5.1.1.3.2.5.2h3.4c.2,0,.4,0,.5-.2.1-.1.2-.3.2-.5v-15.8h2.2c.2,0,.4,0,.5-.2.1-.1.2-.3.2-.5v-3.4c0-.2,0-.4-.2-.5-.1-.1-.3-.2-.5-.2h-2.2v-1.5c0-1,.4-2,1.1-2.8.7-.8,1.6-1.3,2.6-1.5.2,0,.4-.1.5-.3s.2-.3.2-.5V.7c0,0,0-.2,0-.3,0,0,0-.2-.1-.2,0,0-.1-.1-.2-.2,0,0-.2,0-.3,0Z"/>
      <path class="cls-1" d="M67.2.7c0-.2,0-.4.2-.5.1-.1.3-.2.5-.2h3.4c.2,0,.4,0,.5.2.1.1.2.3.2.5v30.5c0,.2,0,.4-.2.5-.1.1-.3.2-.5.2h-3.4c-.2,0-.4,0-.5-.2-.1-.1-.2-.3-.2-.5V.7Z"/>
      <path class="cls-1" d="M84.5,27.1c-1.2,0-2.3-.3-3.2-1-1-.6-1.7-1.5-2.1-2.6-.4-1.1-.6-2.2-.3-3.4.2-1.1.8-2.2,1.6-3,.8-.8,1.9-1.4,3-1.6,1.1-.2,2.3-.1,3.4.3,1.1.4,2,1.2,2.6,2.1.6,1,1,2.1,1,3.2s-.6,3-1.7,4.1c-1.1,1.1-2.6,1.7-4.1,1.7ZM84.5,10.7c-2.1,0-4.2.6-5.9,1.8-1.8,1.2-3.1,2.8-3.9,4.8-.8,1.9-1,4.1-.6,6.2.4,2.1,1.4,4,2.9,5.5,1.5,1.5,3.4,2.5,5.5,2.9,2.1.4,4.2.2,6.2-.6,2-.8,3.6-2.2,4.8-3.9,1.2-1.8,1.8-3.8,1.8-5.9,0-1.4-.3-2.8-.8-4.1-.5-1.3-1.3-2.5-2.3-3.5-1-1-2.2-1.8-3.5-2.3-1.3-.5-2.7-.8-4.1-.8"/>
      <path class="cls-1" d="M107.5,27.1c-1.2,0-2.3-.3-3.2-1-1-.6-1.7-1.5-2.2-2.6-.4-1.1-.6-2.2-.3-3.4s.8-2.2,1.6-3c.8-.8,1.9-1.4,3-1.6,1.1-.2,2.3-.1,3.4.3,1.1.4,2,1.2,2.6,2.1.6,1,1,2.1,1,3.2s-.6,3-1.7,4.1c-1.1,1.1-2.6,1.7-4.1,1.7ZM117.6,11.5l-3.3,1.6c-1.5-1.2-3.4-2.1-5.3-2.3-2-.3-4,0-5.8.8-1.8.8-3.4,2.1-4.5,3.7-1.1,1.6-1.8,3.5-1.9,5.5-.1,2,.3,3.9,1.3,5.7.9,1.7,2.3,3.2,4.1,4.2,1.7,1,3.7,1.5,5.6,1.4,2,0,3.9-.6,5.6-1.7v1c0,.2,0,.4.2.5.1.1.3.2.5.2h3.4c0,0,.2,0,.3,0,0,0,.2,0,.2-.2,0,0,.1-.1.2-.2,0,0,0-.2,0-.3V11.8c0,0,0-.2,0-.2,0,0,0-.1-.2-.2,0,0-.2,0-.2,0,0,0-.2,0-.2,0"/>
      <path class="cls-1" d="M129.9,10.7h-2.2v-5.1c0,0,0-.2,0-.3,0,0,0-.2-.2-.2,0,0-.1-.1-.2-.2,0,0-.2,0-.3,0h-3.4c-.2,0-.4,0-.5.2-.1.1-.2.3-.2.5v5.1h-2.2c0,0-.2,0-.3,0,0,0-.2,0-.2.2,0,0-.1.1-.2.2,0,0,0,.2,0,.3v3.4c0,0,0,.2,0,.3,0,0,0,.2.2.2,0,0,.1.1.2.2,0,0,.2,0,.3,0h2.2v15.8c0,.2,0,.4.2.5.1.1.3.2.5.2h3.4c0,0,.2,0,.3,0,0,0,.2,0,.2-.2,0,0,.1-.1.2-.2,0,0,0-.2,0-.3v-15.8h2.2c.2,0,.4,0,.5-.2s.2-.3.2-.5v-3.4c0-.2,0-.4-.2-.5-.1-.1-.3-.2-.5-.2"/>
      <path class="cls-1" d="M64.8,0c-2.3.2-4.5,1.2-6.1,2.9-1.6,1.7-2.5,3.9-2.5,6.3v1.5h-2.2c-.2,0-.4,0-.5.2-.1.1-.2.3-.2.5v3.4c0,.2,0,.4.2.5.1.1.3.2.5.2h2.2v15.8c0,.2,0,.4.2.5.1.1.3.2.5.2h3.4c.2,0,.4,0,.5-.2.1-.1.2-.3.2-.5v-15.8h2.2c.2,0,.4,0,.5-.2.1-.1.2-.3.2-.5v-3.4c0-.2,0-.4-.2-.5-.1-.1-.3-.2-.5-.2h-2.2v-1.5c0-1,.4-2,1.1-2.8.7-.8,1.6-1.3,2.6-1.5.2,0,.4-.1.5-.3s.2-.3.2-.5V.7c0,0,0-.2,0-.3,0,0,0-.2-.1-.2,0,0-.1-.1-.2-.2,0,0-.2,0-.3,0Z"/>
    </g>
  </g>
</svg>