<svg width="220" height="49" viewBox="0 0 220 49" fill="none" xmlns="http://www.w3.org/2000/svg">
<path fill-rule="evenodd" clip-rule="evenodd" d="M48.8313 24.4157C48.8313 37.9 37.9 48.8313 24.4157 48.8313C10.9313 48.8313 0 37.9 0 24.4157C0 10.9313 10.9313 0 24.4157 0C37.9 0 48.8313 10.9313 48.8313 24.4157ZM11.101 27.9445H17.5839C17.7768 27.9445 17.9182 28.1254 17.8723 28.312L14.522 41.9049C14.4507 42.194 14.8016 42.3965 15.0162 42.1902L37.6042 20.4498C37.7971 20.2645 37.666 19.9391 37.3985 19.9391H29.4695C29.223 19.9391 29.0842 19.6563 29.2345 19.4608L36.6592 9.83083C36.8101 9.63533 36.6706 9.35258 36.4242 9.35258H21.2277L10.8431 27.5C10.7298 27.6981 10.8731 27.9445 11.101 27.9445Z" fill="white"/>
<path d="M68.3851 9.76611V37.3975H63.3892V9.76611H68.3851Z" fill="white"/>
<path d="M78.4544 25.2548V37.3975H73.5796V16.674H78.2389V20.1953H78.4813C78.9571 19.035 79.7157 18.1131 80.7571 17.4295C81.8074 16.7459 83.1047 16.4041 84.6488 16.4041C86.0762 16.4041 87.3196 16.7099 88.3789 17.3216C89.4472 17.9332 90.2731 18.8192 90.8567 19.9795C91.4492 21.1398 91.7409 22.5474 91.732 24.2024V37.3975H86.8572V24.958C86.8572 23.5728 86.4981 22.489 85.7799 21.7064C85.0707 20.9239 84.0877 20.5326 82.8309 20.5326C81.978 20.5326 81.2194 20.7215 80.5551 21.0993C79.8997 21.4681 79.3835 22.0033 79.0065 22.7048C78.6384 23.4064 78.4544 24.2564 78.4544 25.2548Z" fill="white"/>
<path d="M113.035 22.1517L108.592 22.6374C108.466 22.1876 108.246 21.7649 107.932 21.3691C107.626 20.9734 107.214 20.6541 106.693 20.4112C106.172 20.1684 105.535 20.0469 104.781 20.0469C103.766 20.0469 102.913 20.2673 102.222 20.708C101.54 21.1488 101.203 21.7199 101.212 22.4215C101.203 23.0241 101.423 23.5144 101.872 23.8921C102.33 24.2699 103.084 24.5802 104.134 24.8231L107.662 25.5786C109.619 26.0014 111.074 26.6715 112.025 27.5889C112.986 28.5063 113.471 29.7071 113.48 31.1912C113.471 32.4955 113.089 33.6468 112.335 34.6452C111.59 35.6346 110.553 36.4081 109.224 36.9658C107.896 37.5234 106.37 37.8023 104.646 37.8023C102.114 37.8023 100.076 37.2716 98.5324 36.2102C96.9882 35.1399 96.0681 33.6513 95.7718 31.7444L100.525 31.2857C100.741 32.2211 101.199 32.9272 101.899 33.4039C102.599 33.8806 103.51 34.119 104.633 34.119C105.791 34.119 106.72 33.8806 107.42 33.4039C108.129 32.9272 108.484 32.338 108.484 31.6365C108.484 31.0428 108.255 30.5526 107.797 30.1659C107.348 29.7791 106.648 29.4823 105.696 29.2754L102.168 28.5333C100.184 28.1196 98.7164 27.4225 97.7648 26.4421C96.8132 25.4527 96.3419 24.2024 96.3508 22.6913C96.3419 21.4141 96.6875 20.3078 97.3877 19.3723C98.0969 18.4279 99.08 17.6993 100.337 17.1867C101.603 16.665 103.061 16.4041 104.713 16.4041C107.137 16.4041 109.045 16.9213 110.436 17.9557C111.837 18.9901 112.703 20.3887 113.035 22.1517Z" fill="white"/>
<path d="M127.828 16.674V20.4517H115.937V16.674H127.828ZM118.873 11.7089H123.748V31.1643C123.748 31.8209 123.846 32.3246 124.044 32.6753C124.25 33.0171 124.52 33.251 124.852 33.3769C125.184 33.5028 125.552 33.5658 125.956 33.5658C126.261 33.5658 126.54 33.5433 126.791 33.4983C127.051 33.4534 127.249 33.4129 127.384 33.3769L128.205 37.1951C127.945 37.2851 127.572 37.384 127.087 37.4919C126.611 37.5999 126.028 37.6628 125.337 37.6808C124.116 37.7168 123.016 37.5324 122.037 37.1277C121.059 36.7139 120.282 36.0753 119.708 35.2118C119.142 34.3483 118.864 33.269 118.873 31.9738V11.7089Z" fill="white"/>
<path d="M137.857 37.8158C136.546 37.8158 135.366 37.5819 134.315 37.1142C133.274 36.6375 132.448 35.9359 131.837 35.0094C131.236 34.083 130.935 32.9407 130.935 31.5825C130.935 30.4132 131.151 29.4463 131.582 28.6817C132.012 27.9172 132.601 27.3056 133.346 26.8468C134.091 26.3881 134.93 26.0418 135.864 25.808C136.806 25.5651 137.78 25.3897 138.786 25.2818C139.998 25.1559 140.981 25.0434 141.735 24.9445C142.489 24.8366 143.037 24.6747 143.378 24.4588C143.728 24.2339 143.903 23.8876 143.903 23.4199V23.339C143.903 22.3226 143.602 21.5355 143.001 20.9779C142.399 20.4202 141.533 20.1414 140.402 20.1414C139.208 20.1414 138.261 20.4022 137.561 20.9239C136.869 21.4456 136.402 22.0617 136.16 22.7723L131.608 22.1247C131.968 20.8654 132.56 19.8131 133.386 18.9676C134.212 18.1131 135.222 17.4745 136.416 17.0517C137.61 16.62 138.93 16.4041 140.375 16.4041C141.371 16.4041 142.363 16.5211 143.351 16.7549C144.338 16.9888 145.241 17.3755 146.058 17.9152C146.875 18.4459 147.53 19.17 148.024 20.0874C148.526 21.0049 148.778 22.1517 148.778 23.5278V37.3975H144.092V34.5507H143.93C143.634 35.1264 143.216 35.666 142.678 36.1697C142.148 36.6644 141.479 37.0647 140.671 37.3705C139.872 37.6673 138.934 37.8158 137.857 37.8158ZM139.123 34.2269C140.101 34.2269 140.949 34.0335 141.668 33.6468C142.386 33.251 142.938 32.7293 143.324 32.0817C143.719 31.4341 143.917 30.728 143.917 29.9635V27.5214C143.764 27.6474 143.504 27.7643 143.135 27.8722C142.776 27.9802 142.372 28.0746 141.924 28.1556C141.475 28.2365 141.03 28.3085 140.59 28.3714C140.151 28.4344 139.769 28.4884 139.446 28.5333C138.719 28.6323 138.068 28.7942 137.493 29.019C136.919 29.2439 136.465 29.5587 136.133 29.9635C135.801 30.3592 135.635 30.8719 135.635 31.5016C135.635 32.401 135.963 33.0801 136.618 33.5388C137.273 33.9975 138.108 34.2269 139.123 34.2269Z" fill="white"/>
<path d="M158.554 25.2548V37.3975H153.679V16.674H158.339V20.1953H158.581C159.057 19.035 159.816 18.1131 160.857 17.4295C161.907 16.7459 163.204 16.4041 164.749 16.4041C166.176 16.4041 167.419 16.7099 168.479 17.3216C169.547 17.9332 170.373 18.8192 170.956 19.9795C171.549 21.1398 171.841 22.5474 171.832 24.2024V37.3975H166.957V24.958C166.957 23.5728 166.598 22.489 165.88 21.7064C165.171 20.9239 164.188 20.5326 162.931 20.5326C162.078 20.5326 161.319 20.7215 160.655 21.0993C160 21.4681 159.483 22.0033 159.106 22.7048C158.738 23.4064 158.554 24.2564 158.554 25.2548Z" fill="white"/>
<path d="M187.116 16.674V20.4517H175.225V16.674H187.116ZM178.161 11.7089H183.036V31.1643C183.036 31.8209 183.134 32.3246 183.332 32.6753C183.538 33.0171 183.808 33.251 184.14 33.3769C184.472 33.5028 184.84 33.5658 185.244 33.5658C185.549 33.5658 185.828 33.5433 186.079 33.4983C186.339 33.4534 186.537 33.4129 186.671 33.3769L187.493 37.1951C187.233 37.2851 186.86 37.384 186.375 37.4919C185.899 37.5999 185.316 37.6628 184.625 37.6808C183.404 37.7168 182.304 37.5324 181.325 37.1277C180.347 36.7139 179.57 36.0753 178.996 35.2118C178.43 34.3483 178.152 33.269 178.161 31.9738V11.7089Z" fill="white"/>
<path d="M196.512 9.76611V37.3975H191.637V9.76611H196.512Z" fill="white"/>
<path d="M204.554 45.1688C203.89 45.1688 203.275 45.1149 202.71 45.0069C202.153 44.908 201.709 44.7911 201.376 44.6561L202.508 40.8514C203.217 41.0583 203.85 41.1572 204.406 41.1483C204.963 41.1393 205.452 40.9639 205.874 40.6221C206.305 40.2893 206.669 39.7316 206.965 38.9491L207.382 37.8292L199.882 16.674H205.053L209.82 32.3246H210.035L214.816 16.674H220L211.718 39.907C211.332 41.0043 210.821 41.9443 210.183 42.7268C209.546 43.5183 208.765 44.121 207.84 44.5347C206.924 44.9575 205.829 45.1688 204.554 45.1688Z" fill="white"/>
</svg>
