<svg xmlns="http://www.w3.org/2000/svg" width="112" height="24" fill="none"><path fill="#111" fill-rule="evenodd" d="M4.643 6.715c.03-.024.088 0 .088.04v16.704H.642V6.755c0-.04.058-.064.089-.04.187.143.714.426 1.956.426s1.769-.283 1.956-.426ZM0 2.846C0 1.22.935.186 2.687.186c1.664 0 2.628 1.034 2.628 2.66 0 1.566-.964 2.66-2.628 2.66C.935 5.506 0 4.412 0 2.846Zm30.294 3.708c-3.826 0-6.016 2.364-6.016 5.054 0 2.719 1.723 4.256 5.607 5.172 3.125.71 3.563 1.064 3.563 1.832 0 .857-.789 1.36-2.628 1.36-1.887 0-3.8-1.12-5.113-2.372a.204.204 0 0 0-.326.059l-1.25 2.62c-.177.369-.122.814.175 1.093 1.343 1.257 3.672 2.442 6.806 2.442 3.592 0 6.424-1.892 6.424-4.965 0-3.192-2.073-4.374-6.162-5.32-2.92-.71-3.153-1.064-3.153-1.833 0-.71.671-1.448 2.16-1.448 1.356 0 3.098.527 4.48 1.959.199.207.547.173.684-.08l1.05-1.95c.198-.367.159-.824-.14-1.113-1.099-1.066-3.268-2.51-6.161-2.51Zm26.715-.218c-2.774 0-4.675 1.068-6.05 2.694a.779.779 0 0 0-.064.891l1.345 2.336c.154.268.538.272.721.024 1.02-1.378 2.395-2.401 4.02-2.401 1.839 0 2.598.768 2.598 1.714 0 .736-.473.873-3.026 1.616-.422.123-.9.262-1.442.423-3.65.857-5.084 2.999-5.084 5.57 0 2.808 1.577 4.611 4.964 4.611 2.25 0 4.004-.916 4.91-2.542h.087l.409 2.187h3.183V12.938c0-4.256-2.92-6.602-6.57-6.602Zm2.6 9.32v1.774c0 1.507-1.873 2.69-3.888 2.69-1.197 0-1.752-.503-1.752-1.3 0-.799.616-1.7 2.398-2.143.523-.13.99-.223 1.396-.304.978-.195 1.601-.32 1.787-.716h.058Zm28.26-12.278c.11 0 .2.091.2.204v3.502h3.517c.112 0 .202.091.202.204v3.434c0 .113-.09.204-.201.204h-2.63v-.002H84.97l3.187.991v6.313c0 .946.321 1.27 1.051 1.27.701 0 1.506-.385 2.177-.888h.205s-.063.957.218 2.112c.281 1.154 1.064 1.998 1.064 1.998-.73.473-2.641 1.094-4.394 1.094-2.482 0-4.41-1.3-4.41-4.552v-8.511h-1.9a.203.203 0 0 1-.202-.205V7.288c0-.113.049-.204.16-.204h.193c.837 0 1.75-.79 1.75-2.03V3.581c0-.113.09-.204.2-.204h3.6ZM74 6.554c-2.016 0-4.09 1.043-4.895 3.95l-.245-3.596h-3.128a.203.203 0 0 0-.202.205v16.346h4.089v-8.364c0-2.69 1.194-5.064 3.618-5.064 1.665 0 2.894 1.34 2.894 3.616v9.812h4.089V12.317c0-3.163-2.015-5.763-6.22-5.763ZM44.189 3.378c.111 0 .202.091.202.204v3.502h3.517c.11 0 .201.091.201.204v3.434c0 .113-.09.204-.201.204h-2.63v-.002H41.29l3.187.991v6.313c0 .946.322 1.27 1.052 1.27.7 0 1.624-.264 2.296-.766h.205s-.183.957.098 2.111c.281 1.154 1.065 1.999 1.065 1.999-.73.473-2.642.972-4.395.972-2.482 0-4.41-1.3-4.41-4.552v-8.511h-1.9a.203.203 0 0 1-.202-.205V7.288c0-.113.049-.204.16-.204h.193c.837 0 1.75-.79 1.75-2.03V3.58c0-.112.09-.203.201-.203h3.598Zm-33.432 7.127c.805-2.908 2.879-3.951 4.894-3.951 4.205 0 6.22 2.6 6.22 5.763v11.142h-4.088v-9.812c0-2.276-1.23-3.616-2.895-3.616-2.424 0-3.618 2.375-3.618 5.064v8.364H7.182V7.113c0-.113.09-.205.2-.205h3.129l.246 3.597Zm91.746-3.442-4.3 7.45c-.9 1.558.47 3.454 2.206 3.05l3.411-.793-2.091 6.627h-1.194c-3.172 0-5.62-2.831-5.21-6.023l1.27-9.888a.48.48 0 0 1 .474-.423h5.434Zm2.798 0-1.186 4.19-2.625 1.554 2.319-.476 3.295-.59c1.635-.293 2.835 1.523 1.948 2.947l-5.424 8.709h2.959c3.173 0 5.622-2.831 5.211-6.023l-1.27-9.888a.48.48 0 0 0-.474-.423h-4.753Z" clip-rule="evenodd"/></svg>