<svg xmlns="http://www.w3.org/2000/svg" viewBox="0 0 2889 523" fill="none">
  <rect width="523" height="523" rx="37" fill="currentColor"/>
  <path d="M892.077 261.818C892.077 293.7 886.033 320.824 873.947 343.189C861.955 365.554 845.586 382.637 824.839 394.438C804.187 406.144 780.965 411.997 755.174 411.997C729.192 411.997 705.876 406.097 685.224 394.295C664.572 382.494 648.25 365.411 636.259 343.046C624.267 320.681 618.271 293.605 618.271 261.818C618.271 229.936 624.267 202.812 636.259 180.447C648.25 158.082 664.572 141.047 685.224 129.341C705.876 117.54 729.192 111.639 755.174 111.639C780.965 111.639 804.187 117.54 824.839 129.341C845.586 141.047 861.955 158.082 873.947 180.447C886.033 202.812 892.077 229.936 892.077 261.818ZM829.407 261.818C829.407 241.166 826.314 223.75 820.128 209.57C814.037 195.389 805.424 184.635 794.289 177.307C783.154 169.979 770.116 166.315 755.174 166.315C740.232 166.315 727.194 169.979 716.059 177.307C704.924 184.635 696.263 195.389 690.077 209.57C683.987 223.75 680.941 241.166 680.941 261.818C680.941 282.47 683.987 299.886 690.077 314.067C696.263 328.247 704.924 339.001 716.059 346.33C727.194 353.658 740.232 357.322 755.174 357.322C770.116 357.322 783.154 353.658 794.289 346.33C805.424 339.001 814.037 328.247 820.128 314.067C826.314 299.886 829.407 282.47 829.407 261.818ZM1035.8 412.283C1013.34 412.283 994.016 407.524 977.837 398.007C961.753 388.395 949.381 375.071 940.721 358.036C932.155 341 927.873 321.395 927.873 299.22C927.873 276.76 932.203 257.06 940.863 240.119C949.619 223.084 962.039 209.808 978.123 200.29C994.207 190.678 1013.34 185.872 1035.51 185.872C1054.64 185.872 1071.39 189.346 1085.76 196.293C1100.13 203.241 1111.5 212.996 1119.88 225.558C1128.25 238.121 1132.87 252.872 1133.73 269.812H1076.34C1074.72 258.868 1070.44 250.065 1063.49 243.403C1056.64 236.646 1047.64 233.267 1036.51 233.267C1027.09 233.267 1018.86 235.837 1011.81 240.976C1004.87 246.02 999.441 253.396 995.539 263.103C991.637 272.81 989.686 284.564 989.686 298.364C989.686 312.354 991.589 324.25 995.396 334.053C999.298 343.855 1004.77 351.326 1011.81 356.465C1018.86 361.604 1027.09 364.174 1036.51 364.174C1043.46 364.174 1049.69 362.746 1055.21 359.891C1060.83 357.036 1065.44 352.896 1069.06 347.472C1072.77 341.952 1075.2 335.337 1076.34 327.629H1133.73C1132.77 344.379 1128.21 359.13 1120.02 371.883C1111.93 384.54 1100.75 394.438 1086.47 401.576C1072.2 408.714 1055.31 412.283 1035.8 412.283ZM1289.29 188.727V234.409H1157.25V188.727H1289.29ZM1187.22 136.193H1248.04V340.619C1248.04 346.234 1248.89 350.612 1250.61 353.753C1252.32 356.798 1254.7 358.94 1257.75 360.177C1260.89 361.414 1264.5 362.033 1268.59 362.033C1271.45 362.033 1274.31 361.795 1277.16 361.319C1280.02 360.748 1282.2 360.32 1283.73 360.034L1293.29 405.288C1290.25 406.239 1285.96 407.334 1280.44 408.571C1274.92 409.903 1268.21 410.712 1260.31 410.998C1245.66 411.569 1232.81 409.618 1221.77 405.145C1210.83 400.672 1202.31 393.724 1196.22 384.303C1190.13 374.881 1187.13 362.984 1187.22 348.614V136.193ZM1425.63 412.283C1403.45 412.283 1384.27 407.572 1368.1 398.15C1352.01 388.633 1339.59 375.404 1330.84 358.464C1322.08 341.428 1317.7 321.68 1317.7 299.22C1317.7 276.57 1322.08 256.774 1330.84 239.834C1339.59 222.798 1352.01 209.57 1368.1 200.148C1384.27 190.631 1403.45 185.872 1425.63 185.872C1447.8 185.872 1466.93 190.631 1483.01 200.148C1499.19 209.57 1511.66 222.798 1520.42 239.834C1529.17 256.774 1533.55 276.57 1533.55 299.22C1533.55 321.68 1529.17 341.428 1520.42 358.464C1511.66 375.404 1499.19 388.633 1483.01 398.15C1466.93 407.572 1447.8 412.283 1425.63 412.283ZM1425.91 365.173C1436 365.173 1444.42 362.318 1451.18 356.608C1457.94 350.803 1463.03 342.903 1466.45 332.911C1469.98 322.918 1471.74 311.545 1471.74 298.792C1471.74 286.039 1469.98 274.666 1466.45 264.673C1463.03 254.68 1457.94 246.781 1451.18 240.976C1444.42 235.17 1436 232.268 1425.91 232.268C1415.73 232.268 1407.16 235.17 1400.22 240.976C1393.36 246.781 1388.18 254.68 1384.66 264.673C1381.23 274.666 1379.52 286.039 1379.52 298.792C1379.52 311.545 1381.23 322.918 1384.66 332.911C1388.18 342.903 1393.36 350.803 1400.22 356.608C1407.16 362.318 1415.73 365.173 1425.91 365.173ZM1633.91 115.636V408H1573.09V115.636H1633.91ZM1745.15 412.14C1731.16 412.14 1718.69 409.713 1707.75 404.859C1696.8 399.911 1688.14 392.63 1681.77 383.018C1675.48 373.31 1672.34 361.224 1672.34 346.758C1672.34 334.576 1674.58 324.345 1679.05 316.065C1683.53 307.786 1689.62 301.124 1697.33 296.08C1705.03 291.036 1713.79 287.229 1723.59 284.659C1733.49 282.089 1743.86 280.281 1754.71 279.234C1767.47 277.902 1777.74 276.665 1785.55 275.523C1793.35 274.286 1799.02 272.477 1802.54 270.098C1806.06 267.719 1807.82 264.197 1807.82 259.534V258.678C1807.82 249.636 1804.96 242.641 1799.25 237.692C1793.64 232.744 1785.64 230.269 1775.27 230.269C1764.33 230.269 1755.62 232.696 1749.15 237.55C1742.67 242.308 1738.39 248.304 1736.3 255.537L1680.05 250.969C1682.91 237.645 1688.52 226.129 1696.9 216.422C1705.27 206.619 1716.07 199.101 1729.3 193.866C1742.63 188.537 1758.04 185.872 1775.56 185.872C1787.74 185.872 1799.4 187.3 1810.53 190.155C1821.76 193.01 1831.71 197.435 1840.37 203.431C1849.12 209.427 1856.02 217.136 1861.07 226.558C1866.11 235.884 1868.63 247.067 1868.63 260.105V408H1810.96V377.593H1809.25C1805.72 384.445 1801.01 390.489 1795.11 395.723C1789.21 400.862 1782.12 404.907 1773.84 407.857C1765.56 410.712 1756 412.14 1745.15 412.14ZM1762.57 370.17C1771.51 370.17 1779.41 368.409 1786.26 364.888C1793.11 361.271 1798.49 356.418 1802.39 350.327C1806.3 344.236 1808.25 337.336 1808.25 329.627V306.358C1806.34 307.595 1803.73 308.737 1800.4 309.784C1797.16 310.736 1793.5 311.64 1789.4 312.496C1785.31 313.258 1781.22 313.972 1777.13 314.638C1773.03 315.209 1769.32 315.732 1765.99 316.208C1758.85 317.255 1752.62 318.92 1747.29 321.205C1741.96 323.489 1737.82 326.582 1734.87 330.484C1731.92 334.29 1730.45 339.049 1730.45 344.759C1730.45 353.039 1733.44 359.368 1739.44 363.746C1745.53 368.028 1753.24 370.17 1762.57 370.17ZM1976.63 281.233V408H1915.81V188.727H1973.77V227.414H1976.34C1981.2 214.661 1989.33 204.573 2000.75 197.15C2012.17 189.631 2026.02 185.872 2042.29 185.872C2057.52 185.872 2070.8 189.203 2082.12 195.865C2093.45 202.527 2102.25 212.044 2108.53 224.416C2114.81 236.693 2117.96 251.349 2117.96 268.385V408H2057.14V279.234C2057.24 265.815 2053.81 255.347 2046.86 247.828C2039.92 240.214 2030.35 236.408 2018.17 236.408C2009.98 236.408 2002.75 238.168 1996.47 241.69C1990.28 245.211 1985.43 250.35 1981.91 257.107C1978.48 263.769 1976.72 271.811 1976.63 281.233ZM2265.81 412.283C2243.26 412.283 2223.84 407.714 2207.57 398.578C2191.39 389.347 2178.92 376.308 2170.17 359.463C2161.41 342.523 2157.03 322.489 2157.03 299.363C2157.03 276.808 2161.41 257.012 2170.17 239.977C2178.92 222.941 2191.25 209.665 2207.14 200.148C2223.13 190.631 2241.88 185.872 2263.39 185.872C2277.85 185.872 2291.32 188.204 2303.79 192.867C2316.35 197.435 2327.29 204.335 2336.62 213.567C2346.04 222.798 2353.37 234.409 2358.61 248.399C2363.84 262.294 2366.46 278.568 2366.46 297.222V313.924H2181.3V276.236H2309.21C2309.21 267.481 2307.31 259.724 2303.5 252.967C2299.7 246.21 2294.41 240.928 2287.66 237.121C2280.99 233.219 2273.24 231.268 2264.39 231.268C2255.16 231.268 2246.97 233.41 2239.83 237.692C2232.79 241.88 2227.27 247.543 2223.27 254.68C2219.28 261.723 2217.23 269.575 2217.13 278.235V314.067C2217.13 324.916 2219.13 334.29 2223.13 342.19C2227.22 350.089 2232.98 356.18 2240.4 360.462C2247.83 364.745 2256.63 366.886 2266.81 366.886C2273.57 366.886 2279.76 365.935 2285.37 364.031C2290.99 362.128 2295.79 359.273 2299.79 355.466C2303.79 351.659 2306.83 346.996 2308.93 341.476L2365.17 345.188C2362.32 358.702 2356.46 370.503 2347.61 380.591C2338.86 390.584 2327.53 398.388 2313.64 404.003C2299.84 409.523 2283.9 412.283 2265.81 412.283ZM2550.72 408H2484.48L2585.41 115.636H2665.07L2765.85 408H2699.61L2626.38 182.446H2624.1L2550.72 408ZM2546.58 293.082H2703.04V341.333H2546.58V293.082ZM2862.85 115.636V408H2801.04V115.636H2862.85Z" fill="currentColor"/>
  <path d="M286.375 84.2812C257.375 214.773 127.938 224.438 127.938 224.438C127.938 224.438 257.375 234.102 286.375 364.594C315.375 234.102 444.812 224.438 444.812 224.438C444.812 224.438 315.375 214.773 286.375 84.2812Z" fill="currentColor"/>
  <path d="M164.5 279.281C160.538 299.835 150.133 318.594 134.794 332.837C119.455 347.081 99.9784 356.069 79.1875 358.5C99.9784 360.931 119.455 369.919 134.794 384.163C150.133 398.406 160.538 417.165 164.5 437.719C168.462 417.165 178.867 398.406 194.206 384.163C209.545 369.919 229.022 360.931 249.812 358.5C229.022 356.069 209.545 347.081 194.206 332.837C178.867 318.594 168.462 299.835 164.5 279.281Z" fill="currentColor"/>
</svg>
