<svg viewBox="0 0 499 115" xmlns="http://www.w3.org/2000/svg" fill="currentColor">
  <path d="M13.794 110.082H2.73277C0.910922 110.082 0 109.212 0 107.473V28.5573C0 26.7311 0.910922 25.8181 2.73277 25.8181H13.794C15.6158 25.8181 16.5267 26.7311 16.5267 28.5573V32.8618H17.0473C18.0016 30.5139 19.6933 28.7747 22.1224 27.6442C24.5515 26.4268 27.1108 25.8181 29.8002 25.8181H35.1356C41.8157 25.8181 46.8474 27.6442 50.2308 31.2965C53.701 34.9488 55.4361 40.2098 55.4361 47.0796V71.0803C55.4361 77.9501 53.701 83.2111 50.2308 86.8634C46.8474 90.5157 41.8157 92.3419 35.1356 92.3419H29.8002C27.1108 92.3419 24.5515 91.7766 22.1224 90.6462C19.6933 89.4287 18.0016 87.6461 17.0473 85.2982H16.5267V107.473C16.5267 109.212 15.6158 110.082 13.794 110.082ZM27.3358 77.9936H33.0616C35.8377 77.9936 37.7897 77.4284 38.9175 76.2979C40.132 75.0805 40.7393 73.0804 40.7393 70.2977V47.8622C40.7393 45.0795 40.132 43.1229 38.9175 41.9925C37.7897 40.7751 35.8377 40.1663 33.0616 40.1663H27.3358C21.3497 40.1663 18.3567 43.4708 18.3567 50.0797V66.246C18.3567 72.8549 21.3497 77.9936 27.3358 77.9936Z"/>
  <path d="M82.9417 92.3419H71.8805C70.0586 92.3419 69.1477 91.4288 69.1477 89.6026V3.38258C69.1477 1.55644 70.0586 0.643372 71.8805 0.643372H82.9417C84.7635 0.643372 85.6744 1.55644 85.6744 3.38258V89.6026C85.6744 91.4288 84.7635 92.3419 82.9417 92.3419Z"/>
  <path d="M181.008 92.3419H169.947C168.125 92.3419 167.214 91.4288 167.214 89.6026V28.5573C167.214 26.7311 168.125 25.8181 169.947 25.8181H181.008C182.83 25.8181 183.741 26.7311 183.741 28.5573V32.8618H184.262C186.17 28.166 190.421 25.8181 197.015 25.8181H201.179C214.799 25.8181 221.609 32.9052 221.609 47.0796V89.6026C221.609 91.4288 220.655 92.3419 218.747 92.3419H207.815C205.994 92.3419 205.083 91.4288 205.083 89.6026V47.8622C205.083 45.0795 204.475 43.1229 203.261 41.9925C202.133 40.7751 200.181 40.1663 197.405 40.1663H192.72C186.734 40.1663 183.741 43.4708 183.741 50.0797V89.6026C183.741 91.4288 182.83 92.3419 181.008 92.3419Z"/>
  <path d="M249.124 92.3419H238.063C236.241 92.3419 235.33 91.4288 235.33 89.6026V28.5573C235.33 26.7311 236.241 25.8181 238.063 25.8181H249.124C250.946 25.8181 251.857 26.7311 251.857 28.5573V32.8618H252.377C254.286 28.166 258.537 25.8181 265.13 25.8181H269.295C282.915 25.8181 289.725 32.9052 289.725 47.0796V89.6026C289.725 91.4288 288.771 92.3419 286.862 92.3419H275.931C274.109 92.3419 273.199 91.4288 273.199 89.6026V47.8622C273.199 45.0795 272.591 43.1229 271.377 41.9925C270.249 40.7751 268.297 40.1663 265.521 40.1663H260.836C254.85 40.1663 251.857 43.4708 251.857 50.0797V89.6026C251.857 91.4288 250.946 92.3419 249.124 92.3419Z"/>
  <path d="M352.376 92.3419H323.616C316.763 92.3419 311.471 90.5157 307.74 86.8634C304.01 83.2111 302.145 77.9501 302.145 71.0803V47.0796C302.145 40.2098 304.01 34.9488 307.74 31.2965C311.471 27.6442 316.763 25.8181 323.616 25.8181H333.897C340.75 25.8181 346.042 27.6442 349.773 31.2965C353.503 34.9488 355.369 40.2098 355.369 47.0796V63.6453C355.369 65.4715 354.458 66.3845 352.636 66.3845H319.973C318.932 66.3845 318.411 66.8628 318.411 67.8194V70.689C318.411 73.3847 318.975 75.3413 320.103 76.5588C321.317 77.6892 323.313 78.2545 326.089 78.2545H352.376C354.197 78.2545 355.108 79.2110 355.108 81.1241V89.7331C355.108 90.6896 354.891 91.3853 354.458 91.8201C354.111 92.1679 353.417 92.3419 352.376 92.3419ZM319.973 55.2972H337.671C338.625 55.2972 339.102 54.8190 339.102 53.8624V47.6013C339.102 44.8186 338.538 42.8621 337.410 41.7316C336.283 40.6011 334.331 40.0359 331.554 40.0359H326.089C323.313 40.0359 321.361 40.6011 320.233 41.7316C319.105 42.8621 318.541 44.8186 318.541 47.6013V53.8624C318.541 54.8190 319.018 55.2972 319.973 55.2972Z"/>
  <path d="M381.543 92.3419H370.482C368.66 92.3419 367.749 91.4288 367.749 89.6026V28.5573C367.749 26.7311 368.66 25.8181 370.482 25.8181H381.543C383.365 25.8181 384.276 26.7311 384.276 28.5573V32.9922H384.797C385.751 30.6443 387.443 28.8616 389.872 27.6442C392.301 26.4268 394.86 25.8181 397.55 25.8181H402.234C403.969 25.8181 404.837 26.7311 404.837 28.5573V37.5576C404.837 38.6011 404.62 39.3402 404.186 39.7750C403.839 40.1229 403.189 40.2533 402.234 40.1663H393.255C387.269 40.1663 384.276 43.5577 384.276 50.3406V89.6026C384.276 91.4288 383.365 92.3419 381.543 92.3419Z"/>
  <path d="M429.392 92.3419H418.331C416.509 92.3419 415.598 91.4288 415.598 89.6026V3.38258C415.598 1.55644 416.509 0.643372 418.331 0.643372H429.392C431.214 0.643372 432.125 1.55644 432.125 3.38258V89.6026C432.125 91.4288 431.214 92.3419 429.392 92.3419Z"/>
  <path d="M457.900 114.386H449.572C447.837 114.386 446.969 113.429 446.969 111.516V102.777C446.969 100.864 447.837 99.9073 449.572 99.9073H452.304C457.770 99.9073 461.457 99.1247 463.366 97.5594C465.361 96.0811 466.879 93.1680 467.920 88.8200H461.023C459.375 88.8200 458.291 87.9069 457.770 86.0808L442.545 28.5573C442.024 26.7311 442.675 25.8181 444.497 25.8181H456.078C457.813 25.8181 458.898 26.7311 459.332 28.5573L470.523 76.6892H471.043L482.105 28.5573C482.452 26.7311 483.536 25.8181 485.358 25.8181H496.289C498.458 25.8181 499.325 26.7746 498.892 28.6877L483.016 92.3419C481.107 99.5595 478.157 105.038 474.167 108.777C470.176 112.516 464.754 114.386 457.900 114.386Z"/>
  <path fill-rule="evenodd" clip-rule="evenodd" d="M119.407 92.3419H116.150C101.059 92.3419 97.1953 78.2719 97.150 71.2370V47.4130C97.150 40.5938 99.0953 35.3716 102.986 31.7462C106.876 28.1208 112.395 26.3081 119.543 26.3081H146.559C148.549 26.3081 153.879 26.3081 153.879 34.5623V89.6228C153.879 91.4355 152.883 92.3419 150.893 92.3419H141.044C139.136 92.3419 137.228 91.4314 137.228 89.6106V80.5068C137.228 83.2379 132.834 89.6228 125.819 91.4314C124.286 91.8264 122.956 92.3419 119.407 92.3419ZM136.643 41.8725V54.7393C136.643 61.2995 134.664 78.5848 120.427 77.6677C117.532 77.6677 115.496 77.1066 114.320 75.9845C113.144 74.7760 112.556 72.7907 112.556 70.0285V50.0242C112.556 47.2620 113.144 43.9604 114.320 42.8382C115.496 41.6298 117.532 40.4482 120.427 40.4482H135.014C136.100 40.4482 136.643 40.9230 136.643 41.8725Z"/>
</svg>
