<svg xmlns="http://www.w3.org/2000/svg" clip-rule="evenodd" fill-rule="evenodd" stroke-linejoin="round" stroke-miterlimit="2" viewBox="0 0 331 59">
  <path d="m405.522 145.725c0-8.071-6.552-14.623-14.622-14.623h-65.012c-8.071 0-14.623 6.552-14.623 14.623v29.246c0 8.07 6.552 14.623 14.623 14.623h65.012c8.07 0 14.622-6.553 14.622-14.623z" fill="currentColor" opacity="0.3" transform="translate(-96.9866 -131.102)"/>
  <g fill-rule="nonzero">
    <g transform="matrix(3.73407 0 0 3.73407 -972.7856 -782.695)">
      <g fill="currentColor">
        <path d="m268.411 222.064h3.372l-1.652-3.13c.935-.667 1.546-1.761 1.546-2.995 0-2.026-1.648-3.675-3.675-3.675h-7.486v9.8h2.995v-2.45h3.607zm-4.9-7.35h3.947c.675 0 1.225.55 1.225 1.225 0 .676-.55 1.225-1.225 1.225h-3.947z"/>
        <path d="m285.204 217.164c0-3.811-2.177-5.172-6.254-5.172-4.09 0-6.268 1.361-6.268 5.172 0 4.084 2.45 5.173 6.268 5.173 4.077 0 6.254-1.089 6.254-5.173zm-3.266 0c0 2.178-1.089 2.723-2.988 2.723-1.912 0-3.001-.545-3.001-2.723 0-2.177 1.089-2.722 3.001-2.722 1.933 0 2.988.545 2.988 2.722z"/>
        <path d="m298.7 217.164c0-3.811-2.177-5.172-6.254-5.172-4.09 0-6.268 1.361-6.268 5.172 0 4.084 2.45 5.173 6.268 5.173 4.077 0 6.254-1.089 6.254-5.173zm-3.266 0c0 2.178-1.089 2.723-2.988 2.723-1.912 0-3.001-.545-3.001-2.723 0-2.177 1.089-2.722 3.001-2.722 1.933 0 2.988.545 2.988 2.722z"/>
        <path d="m310.383 212.264-3.267 6.534-3.267-6.534h-3.811v9.8h2.995v-5.444l2.722 5.444h2.722l2.722-5.444v5.444h2.995v-9.8z"/>
      </g>
      <path d="m331.089 222.064h3.271l-4.809-9.8h-3.275l-4.804 9.8h3.278l.537-1.089h5.271zm-1.754-3.539h-2.868l1.441-2.923z" fill="currentColor"/>
      <path d="m335.192 212.264h2.994v9.8h-2.994z" fill="currentColor"/>
    </g>
    <path d="m984.024 304.898c.336 0 .642-.108.918-.324s.414-.504.414-.864c0-.384-.156-.66-.468-.828s-.6-.252-.864-.252h-1.692v2.268zm1.584 5.148-1.98-3.564h-1.296v3.564h-2.196v-9.216h3.96c.432 0 .852.048 1.26.144s.78.252 1.116.468.606.51.81.882.306.834.306 1.386c0 .624-.174 1.14-.522 1.548s-.786.708-1.314.9l2.448 3.888zm-10.188-4.5c0-1.128.216-2.19.648-3.186s1.02-1.86 1.764-2.592 1.614-1.314 2.61-1.746 2.058-.648 3.186-.648 2.19.216 3.186.648 1.866 1.014 2.61 1.746 1.332 1.596 1.764 2.592.648 2.058.648 3.186-.216 2.184-.648 3.168-1.02 1.842-1.764 2.574-1.614 1.308-2.61 1.728-2.058.63-3.186.63-2.19-.21-3.186-.63-1.866-.996-2.61-1.728-1.332-1.59-1.764-2.574-.648-2.04-.648-3.168zm1.296 0c0 .936.18 1.824.54 2.664s.852 1.578 1.476 2.214 1.356 1.134 2.196 1.494 1.74.54 2.7.54 1.86-.18 2.7-.54 1.572-.858 2.196-1.494 1.116-1.374 1.476-2.214.54-1.728.54-2.664c0-.96-.18-1.86-.54-2.7s-.852-1.572-1.476-2.196-1.356-1.116-2.196-1.476-1.74-.54-2.7-.54-1.86.18-2.7.54-1.572.852-2.196 1.476-1.116 1.356-1.476 2.196-.54 1.74-.54 2.7z" fill="currentColor" fill-opacity=".7" transform="translate(-661.311 -297.374)"/>
  </g>
</svg>
