<svg width="859" height="148" viewBox="0 0 859 148" fill="none" xmlns="http://www.w3.org/2000/svg">
<g>
<path d="M261.759 58.8758C261.159 59.8306 260.509 60.509 259.81 60.9111C259.16 61.3131 258.311 61.5141 257.261 61.5141C256.162 61.5141 255.062 61.288 253.963 60.8357C252.863 60.3332 251.664 59.8055 250.365 59.2527C249.115 58.6999 247.691 58.1974 246.092 57.7451C244.493 57.2426 242.669 56.9914 240.62 56.9914C237.671 56.9914 235.397 57.5693 233.798 58.7251C232.249 59.8306 231.474 61.3885 231.474 63.3986C231.474 64.8559 231.974 66.062 232.973 67.0168C234.023 67.9716 235.397 68.8259 237.096 69.5797C238.795 70.2832 240.72 70.9616 242.868 71.6149C245.017 72.2682 247.216 72.9968 249.465 73.8009C251.714 74.6049 253.913 75.5597 256.062 76.6653C258.211 77.7206 260.135 79.0523 261.834 80.6604C263.533 82.2182 264.882 84.1278 265.882 86.3892C266.931 88.6506 267.456 91.3642 267.456 94.5301C267.456 98.3996 266.756 101.968 265.357 105.234C263.958 108.5 261.859 111.315 259.06 113.676C256.312 116.038 252.888 117.873 248.79 119.179C244.742 120.486 240.07 121.139 234.773 121.139C232.124 121.139 229.475 120.888 226.827 120.385C224.178 119.883 221.604 119.204 219.105 118.35C216.657 117.496 214.383 116.491 212.284 115.335C210.381 114.241 208.724 113.086 207.314 111.868C207.064 111.653 207.015 111.287 207.19 111.007L212.284 102.897C212.934 101.892 213.708 101.113 214.608 100.56C215.507 99.9574 216.682 99.6559 218.131 99.6559C219.48 99.6559 220.68 99.9574 221.729 100.56C222.829 101.163 224.003 101.817 225.252 102.52C226.502 103.224 227.951 103.877 229.6 104.48C231.299 105.083 233.423 105.385 235.972 105.385C237.771 105.385 239.295 105.209 240.545 104.857C241.794 104.455 242.793 103.927 243.543 103.274C244.293 102.621 244.842 101.892 245.192 101.088C245.542 100.284 245.717 99.4549 245.717 98.6006C245.717 97.0428 245.192 95.7613 244.143 94.7563C243.093 93.7512 241.719 92.8969 240.02 92.1934C238.321 91.4396 236.372 90.7612 234.173 90.1582C232.024 89.5049 229.825 88.7762 227.576 87.9722C225.327 87.1681 223.103 86.2133 220.905 85.1077C218.756 83.9519 216.832 82.5197 215.133 80.8111C213.433 79.0523 212.059 76.9166 211.01 74.4039C209.96 71.8913 209.435 68.851 209.435 65.2831C209.435 61.9664 210.06 58.8256 211.309 55.8607C212.609 52.8455 214.533 50.2072 217.082 47.9459C219.63 45.6845 222.829 43.9005 226.677 42.5939C230.525 41.2371 235.022 40.5587 240.17 40.5587C242.968 40.5587 245.667 40.81 248.266 41.3125C250.914 41.815 253.388 42.5186 255.687 43.4231C257.986 44.3277 260.085 45.4081 261.984 46.6644C263.715 47.7642 265.26 48.9685 266.618 50.2773C266.847 50.4983 266.884 50.8503 266.713 51.1187L261.759 58.8758Z" fill="#373F46"/>
<path d="M303.572 41.7648C303.947 41.7648 304.252 42.0692 304.252 42.4448V119.253C304.252 119.628 303.947 119.933 303.572 119.933H281.693C281.318 119.933 281.013 119.628 281.013 119.253V42.4448C281.013 42.0692 281.318 41.7648 281.693 41.7648H303.572ZM306.95 20.3571C306.95 22.2165 306.575 23.9753 305.826 25.6337C305.076 27.2417 304.052 28.6739 302.752 29.9303C301.453 31.1363 299.929 32.1162 298.18 32.87C296.481 33.5736 294.657 33.9254 292.707 33.9254C290.808 33.9254 289.034 33.5736 287.385 32.87C285.736 32.1162 284.262 31.1363 282.962 29.9303C281.713 28.6739 280.714 27.2417 279.964 25.6337C279.264 23.9753 278.915 22.2165 278.915 20.3571C278.915 18.4475 279.264 16.6635 279.964 15.0052C280.714 13.3469 281.713 11.8895 282.962 10.6332C284.262 9.3769 285.736 8.39697 287.385 7.69343C289.034 6.98989 290.808 6.63812 292.707 6.63812C294.657 6.63812 296.481 6.98989 298.18 7.69343C299.929 8.39697 301.453 9.3769 302.752 10.6332C304.052 11.8895 305.076 13.3469 305.826 15.0052C306.575 16.6635 306.95 18.4475 306.95 20.3571Z" fill="#373F46"/>
<path d="M323.696 119.933C323.32 119.933 323.016 119.628 323.016 119.253V42.4448C323.016 42.0692 323.32 41.7648 323.696 41.7648H337.408C338.857 41.7648 340.057 42.0914 341.006 42.7447C342.006 43.398 342.705 44.3779 343.105 45.6845L344.043 48.7907C344.193 49.289 344.826 49.4415 345.197 49.0756C346.242 48.0423 347.319 47.0878 348.428 46.2121C349.827 45.0563 351.326 44.0764 352.925 43.2724C354.574 42.4181 356.324 41.7648 358.173 41.3125C360.072 40.81 362.146 40.5587 364.394 40.5587C369.092 40.5587 372.965 41.7899 376.014 44.2523C378.761 46.3914 380.919 49.1825 382.488 52.6257C382.728 53.1526 383.488 53.1985 383.79 52.7047C384.936 50.8319 386.267 49.1954 387.783 47.7951C389.682 46.0865 391.706 44.7046 393.854 43.6493C396.053 42.5939 398.352 41.815 400.751 41.3125C403.2 40.81 405.623 40.5587 408.022 40.5587C412.47 40.5587 416.418 41.2371 419.866 42.5939C423.314 43.9005 426.188 45.8353 428.487 48.3981C430.836 50.9108 432.61 54.0264 433.809 57.7451C435.008 61.4136 435.608 65.5846 435.608 70.2581V119.253C435.608 119.628 435.304 119.933 434.928 119.933H413.05C412.674 119.933 412.37 119.628 412.37 119.253V70.2581C412.37 62.1674 408.922 58.122 402.025 58.122C398.877 58.122 396.253 59.1773 394.154 61.288C392.105 63.3483 391.081 66.3384 391.081 70.2581V119.253C391.081 119.628 390.776 119.933 390.401 119.933H368.523C368.147 119.933 367.843 119.628 367.843 119.253V70.2581C367.843 65.7856 366.968 62.6448 365.219 60.8357C363.47 59.0266 360.896 58.122 357.498 58.122C355.399 58.122 353.4 58.5994 351.501 59.5542C349.729 60.4693 348.049 61.6844 346.46 63.1995C346.327 63.326 346.254 63.502 346.254 63.6853V119.253C346.254 119.628 345.949 119.933 345.574 119.933H323.696Z" fill="#373F46"/>
<path d="M452.829 144.733C452.453 144.733 452.149 144.428 452.149 144.053V42.4448C452.149 42.0692 452.453 41.7648 452.829 41.7648H466.542C467.991 41.7648 469.19 42.0914 470.14 42.7447C471.139 43.398 471.839 44.3779 472.239 45.6845L473.616 50.2591C473.768 50.7662 474.418 50.9133 474.784 50.5308C476.042 49.2161 477.368 48.0027 478.76 46.8906C480.51 45.5337 482.359 44.3779 484.308 43.4231C486.307 42.4181 488.431 41.6391 490.679 41.0864C492.978 40.5336 495.477 40.2572 498.176 40.2572C502.224 40.2572 505.972 41.1617 509.42 42.9708C512.868 44.7799 515.842 47.3931 518.34 50.8103C520.839 54.2275 522.788 58.4236 524.187 63.3986C525.637 68.3233 526.361 73.9265 526.361 80.2081C526.361 86.0877 525.537 91.515 523.887 96.49C522.288 101.465 520.014 105.787 517.066 109.455C514.167 113.124 510.669 115.988 506.571 118.048C502.523 120.109 498.026 121.139 493.078 121.139C489.03 121.139 485.632 120.561 482.883 119.405C480.596 118.443 478.481 117.203 476.539 115.684C476.08 115.324 475.387 115.643 475.387 116.226V144.053C475.387 144.428 475.083 144.733 474.707 144.733H452.829ZM490.08 58.122C488.381 58.122 486.831 58.2979 485.432 58.6497C484.083 58.9512 482.808 59.4035 481.609 60.0065C480.46 60.6096 479.385 61.3885 478.386 62.3433C477.439 63.2004 476.491 64.193 475.544 65.3209C475.442 65.4422 475.387 65.5959 475.387 65.7544V98.4167C475.387 98.5837 475.448 98.7452 475.561 98.8684C477.262 100.727 479.103 102.044 481.084 102.822C483.133 103.576 485.282 103.953 487.531 103.953C489.68 103.953 491.654 103.525 493.453 102.671C495.252 101.817 496.801 100.46 498.101 98.6006C499.45 96.691 500.499 94.2286 501.249 91.2135C501.999 88.1983 502.373 84.5298 502.373 80.2081C502.373 76.0874 502.074 72.6199 501.474 69.8058C500.874 66.9916 500.025 64.7303 498.925 63.0217C497.876 61.2628 496.601 60.0065 495.102 59.2527C493.603 58.4989 491.929 58.122 490.08 58.122Z" fill="#373F46"/>
<path d="M562.131 7.09039C562.507 7.09039 562.811 7.39486 562.811 7.77044V119.253C562.811 119.628 562.507 119.933 562.131 119.933H540.253C539.878 119.933 539.573 119.628 539.573 119.253V7.77044C539.573 7.39486 539.878 7.09039 540.253 7.09039H562.131Z" fill="#373F46"/>
<path d="M614.858 40.5587C620.006 40.5587 624.703 41.3628 628.951 42.9708C633.249 44.5789 636.922 46.9157 639.971 49.9811C643.069 53.0465 645.468 56.8155 647.167 61.288C648.916 65.7102 649.791 70.7355 649.791 76.3638C649.791 78.1226 649.716 79.5548 649.566 80.6604C649.416 81.7659 649.141 82.6454 648.741 83.2987C648.341 83.9519 647.792 84.4042 647.092 84.6555C646.442 84.9067 645.593 85.0324 644.543 85.0324H600.479C600.072 85.0324 599.756 85.3873 599.81 85.7901C600.622 91.9336 602.565 96.43 605.638 99.279C608.836 102.194 612.959 103.651 618.007 103.651C620.705 103.651 623.029 103.324 624.978 102.671C626.927 102.018 628.651 101.289 630.151 100.485C631.7 99.681 633.099 98.9524 634.348 98.2991C635.648 97.6458 636.997 97.3192 638.396 97.3192C640.245 97.3192 641.645 97.9976 642.594 99.3544L648.984 107.279C649.19 107.535 649.184 107.903 648.965 108.149C646.671 110.719 644.198 112.838 641.545 114.506C638.796 116.214 635.948 117.571 632.999 118.576C630.101 119.531 627.177 120.184 624.229 120.536C621.33 120.938 618.556 121.139 615.908 121.139C610.461 121.139 605.338 120.26 600.541 118.501C595.793 116.692 591.62 114.028 588.022 110.511C584.474 106.993 581.65 102.621 579.551 97.3945C577.502 92.1683 576.478 86.0877 576.478 79.1528C576.478 73.9265 577.352 68.9766 579.102 64.3031C580.901 59.6296 583.449 55.534 586.748 52.0163C590.096 48.4986 594.119 45.7096 598.816 43.6493C603.564 41.5889 608.911 40.5587 614.858 40.5587ZM615.308 56.6898C610.86 56.6898 607.387 57.9713 604.888 60.5342C602.53 62.9061 600.928 66.2857 600.083 70.673C600.004 71.0858 600.324 71.4641 600.744 71.4641H628.271C628.647 71.4641 628.952 71.1596 628.94 70.7842C628.886 69.163 628.64 67.5806 628.202 66.0368C627.752 64.278 626.977 62.7202 625.878 61.3633C624.828 59.9563 623.429 58.8256 621.68 57.9713C619.931 57.117 617.807 56.6898 615.308 56.6898Z" fill="#373F46"/>
<path d="M710.651 58.8758C710.052 59.8306 709.402 60.509 708.702 60.9111C708.053 61.3131 707.203 61.5141 706.154 61.5141C705.054 61.5141 703.955 61.288 702.855 60.8357C701.756 60.3332 700.557 59.8055 699.257 59.2527C698.008 58.6999 696.584 58.1974 694.984 57.7451C693.385 57.2426 691.561 56.9914 689.512 56.9914C686.564 56.9914 684.29 57.5693 682.691 58.7251C681.141 59.8306 680.367 61.3885 680.367 63.3986C680.367 64.8559 680.867 66.062 681.866 67.0168C682.915 67.9716 684.29 68.8259 685.989 69.5797C687.688 70.2832 689.612 70.9616 691.761 71.6149C693.91 72.2682 696.109 72.9968 698.358 73.8009C700.607 74.6049 702.805 75.5597 704.954 76.6653C707.103 77.7206 709.027 79.0523 710.726 80.6604C712.426 82.2182 713.775 84.1278 714.774 86.3892C715.824 88.6506 716.348 91.3642 716.348 94.5301C716.348 98.3996 715.649 101.968 714.25 105.234C712.85 108.5 710.751 111.315 707.953 113.676C705.204 116.038 701.781 117.873 697.683 119.179C693.635 120.486 688.962 121.139 683.665 121.139C681.017 121.139 678.368 120.888 675.719 120.385C673.071 119.883 670.497 119.204 667.998 118.35C665.549 117.496 663.276 116.491 661.177 115.335C659.273 114.241 657.617 113.086 656.207 111.868C655.957 111.653 655.907 111.287 656.083 111.007L661.177 102.897C661.826 101.892 662.601 101.113 663.5 100.56C664.4 99.9574 665.574 99.6559 667.024 99.6559C668.373 99.6559 669.572 99.9574 670.622 100.56C671.721 101.163 672.896 101.817 674.145 102.52C675.394 103.224 676.844 103.877 678.493 104.48C680.192 105.083 682.316 105.385 684.865 105.385C686.664 105.385 688.188 105.209 689.437 104.857C690.687 104.455 691.686 103.927 692.436 103.274C693.185 102.621 693.735 101.892 694.085 101.088C694.435 100.284 694.61 99.4549 694.61 98.6006C694.61 97.0428 694.085 95.7613 693.035 94.7563C691.986 93.7512 690.612 92.8969 688.913 92.1934C687.213 91.4396 685.264 90.7612 683.065 90.1582C680.917 89.5049 678.718 88.7762 676.469 87.9722C674.22 87.1681 671.996 86.2133 669.797 85.1077C667.648 83.9519 665.724 82.5197 664.025 80.8111C662.326 79.0523 660.952 76.9166 659.902 74.4039C658.853 71.8913 658.328 68.851 658.328 65.2831C658.328 61.9664 658.953 58.8256 660.202 55.8607C661.501 52.8455 663.425 50.2072 665.974 47.9459C668.523 45.6845 671.721 43.9005 675.569 42.5939C679.417 41.2371 683.915 40.5587 689.062 40.5587C691.861 40.5587 694.56 40.81 697.158 41.3125C699.807 41.815 702.281 42.5186 704.579 43.4231C706.878 44.3277 708.977 45.4081 710.876 46.6644C712.608 47.7642 714.153 48.9685 715.51 50.2773C715.74 50.4983 715.777 50.8503 715.605 51.1187L710.651 58.8758Z" fill="#373F46"/>
<path d="M782.829 119.933C780.63 119.933 778.956 119.631 777.807 119.028C776.707 118.425 775.783 117.169 775.033 115.259L773.728 111.859C773.56 111.422 773.01 111.281 772.649 111.581C770.963 112.986 769.334 114.237 767.762 115.335C765.963 116.591 764.089 117.672 762.14 118.576C760.241 119.43 758.192 120.059 755.993 120.461C753.844 120.913 751.445 121.139 748.796 121.139C745.248 121.139 742.025 120.687 739.126 119.782C736.228 118.827 733.754 117.445 731.705 115.636C729.706 113.827 728.157 111.591 727.057 108.928C725.958 106.214 725.408 103.098 725.408 99.5805C725.408 96.8166 726.108 93.9774 727.507 91.0627C728.907 88.148 731.33 85.5098 734.779 83.1479C738.227 80.7358 742.875 78.7257 748.721 77.1176C754.422 75.5498 761.572 74.6507 770.17 74.4203C770.539 74.4104 770.835 74.1087 770.835 73.7391V71.0872C770.835 66.5142 769.886 63.2227 767.987 61.2126C766.138 59.1522 763.489 58.122 760.041 58.122C757.292 58.122 755.043 58.4236 753.294 59.0266C751.545 59.6296 749.971 60.308 748.572 61.0618C747.222 61.8156 745.898 62.494 744.599 63.0971C743.299 63.7001 741.75 64.0016 739.951 64.0016C738.352 64.0016 736.977 63.6247 735.828 62.8709C734.729 62.0669 733.854 61.087 733.204 59.9311L729.282 53.0992C729.122 52.8197 729.179 52.4656 729.422 52.2542C734.01 48.2676 739.069 45.2987 744.599 43.3477C750.346 41.2874 756.493 40.2572 763.039 40.2572C767.737 40.2572 771.96 41.0361 775.708 42.5939C779.506 44.1015 782.704 46.2373 785.303 49.0012C787.952 51.7148 789.976 54.9561 791.375 58.7251C792.774 62.494 793.474 66.6147 793.474 71.0872V119.253C793.474 119.628 793.169 119.933 792.794 119.933H782.829ZM756.143 105.686C759.141 105.686 761.765 105.159 764.014 104.103C766.199 103.078 768.409 101.435 770.642 99.1749C770.766 99.0489 770.835 98.8784 770.835 98.7012V88.833C770.835 88.4459 770.512 88.1367 770.125 88.1555C765.797 88.3658 762.21 88.7569 759.366 89.329C756.368 89.932 753.994 90.6858 752.245 91.5904C750.496 92.4949 749.271 93.5251 748.572 94.6809C747.922 95.8367 747.597 97.093 747.597 98.4499C747.597 101.113 748.322 102.998 749.771 104.103C751.22 105.159 753.344 105.686 756.143 105.686Z" fill="#373F46"/>
<path d="M837.261 121.139C833.563 121.139 830.289 120.611 827.441 119.556C824.642 118.45 822.268 116.918 820.319 114.958C818.42 112.948 816.971 110.536 815.972 107.721C814.972 104.907 814.472 101.767 814.472 98.2991V58.576C814.472 58.2004 814.168 57.8959 813.792 57.8959H807.876C806.676 57.8959 805.652 57.519 804.802 56.7652C803.953 55.9612 803.528 54.8054 803.528 53.2978V44.7371C803.528 44.4118 803.758 44.132 804.078 44.0697L815.467 41.8485C815.729 41.7975 815.937 41.5986 815.999 41.3396L820.469 22.6939C821.069 20.2817 822.768 19.0757 825.567 19.0757H837.031C837.406 19.0757 837.711 19.3801 837.711 19.7557V41.2355C837.711 41.6111 838.015 41.9155 838.391 41.9155H855.921C856.296 41.9155 856.601 42.22 856.601 42.5956V57.2159C856.601 57.5914 856.296 57.8959 855.921 57.8959H838.391C838.015 57.8959 837.711 58.2004 837.711 58.576V96.7161C837.711 98.5252 838.135 100.033 838.985 101.239C839.884 102.395 841.159 102.973 842.808 102.973C843.658 102.973 844.357 102.897 844.907 102.746C845.507 102.545 846.006 102.344 846.406 102.143C846.856 101.892 847.256 101.691 847.606 101.54C848.005 101.339 848.455 101.239 848.955 101.239C849.654 101.239 850.204 101.415 850.604 101.767C851.054 102.068 851.504 102.571 851.953 103.274L858.663 113.825C858.853 114.124 858.782 114.52 858.495 114.728C855.624 116.805 852.419 118.389 848.88 119.481C845.132 120.586 841.259 121.139 837.261 121.139Z" fill="#373F46"/>
<path d="M74.1392 19.3593C88.6001 19.4626 102.434 25.281 112.623 35.5453C122.812 45.8097 128.53 59.6874 128.53 74.1519C128.53 88.6163 122.812 102.494 112.623 112.758C102.434 123.023 88.6001 128.841 74.1392 128.944C66.383 128.943 58.717 127.28 51.6576 124.066L47.3515 122.12C46.776 121.86 46.1378 121.772 45.5132 121.865L40.8433 122.561L27.6929 124.52C25.4331 124.856 23.4911 122.913 23.8292 120.653L25.7866 107.574L26.4834 102.879C26.5762 102.253 26.4867 101.615 26.2256 101.039L24.2652 96.7153C21.0281 89.6342 19.3514 81.9395 19.3489 74.1533C19.3659 59.6262 25.143 45.699 35.4129 35.4269C45.6828 25.1547 59.607 19.3763 74.1308 19.3593H74.1392ZM74.135 0.00140565C74.1323 0.00234027 74.1293 0.00281507 74.1264 0.00281151C61.731 -0.0122668 49.5301 3.08573 38.6428 9.01277C27.7542 14.9405 18.5281 23.5082 11.8108 33.9298C5.09344 44.3514 1.1 56.2932 0.196784 68.6599C-0.682822 80.7033 1.39573 92.7741 6.24472 103.822C6.49969 104.403 6.59133 105.044 6.49755 105.671L1.49991 139.109C0.824526 143.628 4.70876 147.514 9.22796 146.841L42.7381 141.847C43.3615 141.755 43.9978 141.845 44.5757 142.096C54.4098 146.376 65.0593 148.471 75.7888 148.232C86.8402 147.986 97.6966 145.271 107.563 140.285C117.429 135.299 126.055 128.168 132.809 119.415C139.563 110.662 144.274 100.509 146.596 89.6995C148.919 78.8897 148.794 67.6972 146.232 56.9419C143.669 46.1865 138.734 36.1408 131.787 27.5405C124.84 18.9403 116.057 12.0034 106.082 7.23807C96.1088 2.47337 85.1962 0.000319103 74.1436 3.08789e-08C74.1407 -5.3263e-08 74.1378 0.000474788 74.135 0.00140565Z" fill="#43BE64"/>
<path d="M74.5729 97.6283C63.2479 97.6235 52.1899 94.2097 42.8543 87.8364C42.0889 87.3175 41.4338 86.6538 40.9265 85.8832C40.4191 85.1127 40.0694 84.2503 39.8972 83.3453C39.7251 82.4404 39.734 81.5106 39.9233 80.609C40.1126 79.7075 40.4788 78.8519 41.0007 78.091C41.5227 77.3301 42.1903 76.6789 42.9654 76.1745C43.7406 75.6701 44.6081 75.3224 45.5184 75.1513C46.4287 74.9802 47.3639 74.989 48.2708 75.1772C49.1777 75.3654 50.0384 75.7294 50.8038 76.2483C57.8293 80.9519 66.1069 83.4645 74.5771 83.4645C83.0474 83.4645 91.3249 80.9519 98.3505 76.2483C99.8962 75.2003 101.797 74.8057 103.636 75.1513C105.474 75.4969 107.099 76.5543 108.154 78.091C109.208 79.6277 109.605 81.5177 109.257 83.3453C108.909 85.173 107.846 86.7885 106.3 87.8364C96.9619 94.2114 85.9007 97.6252 74.5729 97.6283Z" fill="#43BE64"/>
</g>
<defs>
<clipPath id="clip0_1311_262">
</clipPath>
</defs>
</svg>
