<?xml version="1.0" encoding="UTF-8"?>
<svg id="Layer_1" data-name="Layer 1" xmlns="http://www.w3.org/2000/svg" viewBox="0 0 951.54 206">
  <defs>
    <style>
      .cls-1 {
        fill: #ff4f01;
      }

      .cls-2 {
        fill: #201515;
      }
    </style>
  </defs>
  <path class="cls-1" d="M173.02,115.22c-4.14,4.24-9.45,6.41-15.36,7.37-6.65,1.07-13.13,.21-19.57-1.2-3.08-.67-6.05-1.82-9.34-2.83,1.94-3.29,3.73-6.32,5.55-9.4,2.62,1.14,5.07,2.28,7.56,3.28,4.83,1.94,9.84,2.98,15.07,2.78,8.52-.32,14.61-4.46,18.43-12,2.31-4.56,3.19-9.43,2.73-14.51-.13-1.41-.65-2.78-.94-4.18-.19-.9,.71-1.7,2.22-2.13,1.03-.3,1.35,.36,1.55,1.11,3.21,12.02,.86,22.75-7.89,31.7ZM184.15,0H45.98C27.32,0,12.06,15.26,12.06,33.91v52.29c2.98-.31,5.97-.53,8.96-.65,5.84-.23,11.69-.49,17.51-.25,7.09,.3,14.18,.97,21.24,1.73,5.37,.59,10.75,1.33,16.03,2.44,7.67,1.61,15.32,3.38,22.86,5.52,6.05,1.72,11.93,4.05,17.87,6.17,1.01,.36,1.65,.29,2.3-.62,6.28-8.71,19.86-27.79,19.86-27.79l-17.46-2.17,15.8-16.9-4.24-21.6,20.32,9.74,19.58-10.67-3.18,22.01,16.84,15.6-22.74,3.82-9.35,20.84-8.3-15.63s-52.09,80.82-60.3,93.58c-3.63,5.64-3.68,5.69-7.27,11.36-.56,.89-.96,1.11-1.97,.38-3.43-2.47-6.96-4.8-10.46-7.18-1.24-.85-1.31-1.25-.45-2.43,6.77-9.33,43.7-59.88,43.92-60.3-1.69-.4-3.24-.88-4.83-1.13-6.17-.99-12.34-2.11-18.55-2.8-5.74-.63-11.53-.92-17.3-1.1-5.25-.17-10.52-.19-15.77,.08-5.08,.26-10.15,.85-15.19,1.5-4.62,.61-9.22,1.42-13.8,2.29-3.02,.58-6.01,1.32-8.96,2.17-3.26,.94-6.48,2-9.7,3.09-1.8,.61-3.57,1.27-5.33,1.98,3.73,2.18,6.75,5.27,8.83,8.9,2.08,3.62,3.23,7.78,3.23,12.11v31.8c0,18.65,15.26,33.91,33.92,33.91H184.15c18.65,0,33.91-15.26,33.91-33.91V33.91c0-18.65-15.26-33.91-33.91-33.91Z"/>
  <g>
    <path class="cls-2" d="M261.03,127.75l11.04-16.22c6.86,7.36,18.73,14.55,31.1,14.55,6.52,0,10.37-2.01,10.37-6.35s-4.68-6.02-13.38-8.19l-11.04-2.68c-14.71-3.85-25.42-9.7-25.42-24.08,0-16.05,13.04-25.58,33.11-25.58,17.72,0,30.6,7.69,36.28,14.88l-10.7,16.05c-8.03-8.36-18.06-12.88-27.59-12.88-5.85,0-9.36,2.17-9.36,6.19,0,4.35,3.51,6.02,14.38,9.03l9.2,2.51c18.06,4.85,25.92,11.87,25.92,24.41,0,15.89-13.38,24.92-32.44,24.92s-34.45-6.69-41.47-16.55Z"/>
    <path class="cls-2" d="M343.29,117.88V60.69h23.91v48.83c0,10.03,2.68,16.22,13.71,16.22s14.88-6.35,14.88-19.73V60.69h23.91v81.94h-23.91v-22.91c-2.84,13.04-10.7,24.58-27.26,24.58-15.55,0-25.25-9.53-25.25-26.42Z"/>
    <path class="cls-2" d="M434.91,142.63V30.6h23.91v53.51c2.34-13.21,9.03-25.08,26.09-25.08,19.06,0,31.6,15.55,31.6,42.64s-12.54,42.81-32.61,42.81c-17.06,0-22.91-11.7-25.08-24.91v23.08h-23.91Zm39.46-16.89c10.87,0,17.72-8.36,17.72-24.08s-6.86-24.08-17.72-24.08c-10.03,0-15.55,6.35-15.55,19.73v8.86c0,13.38,5.52,19.56,15.55,19.56Z"/>
    <path class="cls-2" d="M527.37,142.63V60.69h23.91v23.58c2.51-13.38,9.86-25.25,26.75-25.25,15.05,0,23.41,9.53,23.41,25.42,2.51-13.54,9.86-25.42,26.75-25.42,15.05,0,23.41,9.53,23.41,26.42v57.19h-23.91v-48.83c0-10.7-3.34-16.22-13.04-16.22s-13.21,6.35-13.21,19.73v45.32h-23.91v-48.83c0-10.7-3.34-16.22-13.04-16.22s-13.21,6.35-13.21,19.73v45.32h-23.91Z"/>
    <path class="cls-2" d="M662.63,124.4c0-12.37,7.86-19.57,23.41-24.92l25.08-9.36c-.84-6.86-4.01-10.7-13.04-10.7-10.37,0-19.9,5.85-25.59,14.05l-12.04-17.39c8.19-8.86,21.74-17.06,39.3-17.06,20.73,0,32.77,11.04,32.77,31.6v28.09c0,3.68,1.34,4.85,4.35,4.85h4.85v19.06h-14.05c-8.86,0-16.89-4.01-16.89-15.72v-5.52c-2.68,10.7-9.86,23.08-26.59,23.08-12.71,0-21.57-6.86-21.57-20.06Zm30.43,2.51c11.37,0,17.72-5.68,17.72-15.72v-5.69l-17.39,7.19c-6.52,2.68-8.7,5.01-8.7,8.19,0,3.85,2.68,6.02,8.36,6.02Z"/>
    <path class="cls-2" d="M767.29,115.04c-1.17,1.84-2.17,4.35-2.17,6.69,0,3.85,2.01,6.02,8.53,6.02h28.76c18.23,0,26.42,7.52,26.42,19.56,0,15.38-14.88,28.09-47.49,28.09-25.25,0-38.46-7.52-38.46-17.22,0-7.86,8.19-11.87,18.06-13.04-6.86-1.5-12.21-5.18-12.21-12.37,0-8.36,7.36-15.22,15.22-19.56-8.53-5.19-13.54-13.71-13.54-24.25,0-17.72,14.38-29.93,35.78-29.93,4.85,0,9.37,.67,13.54,1.84l3.68-19.73,21.24,7.19-15.88,16.56c8.36,5.35,13.38,13.71,13.38,24.08,0,17.72-14.55,29.93-35.95,29.93-7.19,0-13.54-1.34-18.89-3.85Zm40.97,35.12c0-3.68-3.01-4.85-9.37-4.85h-34.61c-1.01,1.17-2.17,2.84-2.17,4.85,0,5.35,5.85,8.53,21.24,8.53,16.55,0,24.91-3.18,24.91-8.53Zm-8.53-61.2c0-9.2-5.85-13.88-13.54-13.88s-13.54,4.68-13.54,13.88,6.02,13.88,13.54,13.88,13.54-4.68,13.54-13.88Z"/>
    <path class="cls-2" d="M837.01,51V30.6h23.91v20.4h-23.91Zm0,91.63V60.69h23.91v81.94h-23.91Z"/>
    <path class="cls-2" d="M872.28,101.66c0-24.91,15.89-42.64,41.14-42.64,19.56,0,33.11,10.7,38.12,24.75l-19.9,11.54c-2.01-10.2-7.36-16.39-17.39-16.39-10.53,0-17.56,7.69-17.56,22.74s7.02,22.74,17.56,22.74,15.39-6.19,17.39-16.39l19.9,11.54c-5.01,14.05-18.56,24.75-38.12,24.75-25.25,0-41.14-17.56-41.14-42.64Z"/>
  </g>
</svg>