<svg xmlns="http://www.w3.org/2000/svg" viewBox="0 0 157 24" fill="none">
  <path d="M 5.627 3.879 L 0 3.879 L 0 0 L 15.793 0 L 15.793 3.879 L 10.166 3.879 L 10.166 18.493 L 5.627 18.493 Z M 16.427 5.173 L 20.732 5.173 L 20.732 7.422 C 20.732 7.863 20.68 8.251 20.68 8.251 L 20.732 8.251 C 21.302 6.44 22.989 4.94 24.985 4.94 C 25.244 4.94 25.503 4.991 25.503 4.991 L 25.503 9.389 C 25.503 9.389 25.14 9.312 24.595 9.312 C 23.532 9.312 21.794 9.647 21.145 11.638 C 20.99 12.13 20.912 12.725 20.912 13.448 L 20.912 18.491 L 16.426 18.491 L 16.426 5.173 Z M 27.395 5.173 L 31.882 5.173 L 31.882 12.985 C 31.882 14.226 32.375 14.744 33.308 14.744 C 35.226 14.744 36.135 13.062 36.135 11.072 L 36.135 5.174 L 40.621 5.174 L 40.621 18.494 L 36.317 18.494 L 36.317 17.33 C 36.317 16.89 36.369 16.503 36.369 16.503 L 36.317 16.503 C 35.591 17.925 33.93 18.804 32.142 18.804 C 29.496 18.804 27.397 17.563 27.397 13.813 L 27.397 5.173 Z M 44.392 13.837 C 44.392 13.837 45.87 15.182 47.788 15.182 C 48.463 15.182 49.111 15.001 49.111 14.561 C 49.111 13.398 42.861 13.268 42.861 8.924 C 42.861 6.415 45.272 4.863 48.359 4.863 C 51.47 4.863 53.053 6.39 53.053 6.39 L 51.522 9.57 C 51.522 9.57 50.226 8.484 48.359 8.484 C 47.684 8.484 47.036 8.666 47.036 9.131 C 47.036 10.139 53.286 10.295 53.286 14.588 C 53.286 16.864 51.263 18.803 47.813 18.803 C 44.468 18.803 42.471 16.838 42.471 16.838 Z M 55.971 8.898 L 54.259 8.898 L 54.259 5.406 L 56.1 5.406 L 56.1 1.578 L 60.457 1.578 L 60.457 5.406 L 63.258 5.406 L 63.258 8.898 L 60.457 8.898 L 60.457 12.985 C 60.457 14.485 61.988 14.691 62.843 14.691 C 63.207 14.691 63.44 14.667 63.44 14.667 L 63.44 18.546 C 63.44 18.546 62.946 18.623 62.22 18.623 C 60.094 18.623 55.971 18.055 55.971 13.58 Z M 64.734 5.172 L 69.453 5.172 L 71.113 13.036 C 71.269 13.76 71.269 14.432 71.269 14.432 L 71.321 14.432 C 71.321 14.432 71.373 13.76 71.554 13.036 L 73.396 5.173 L 77.233 5.173 L 79.074 13.036 C 79.256 13.76 79.282 14.432 79.282 14.432 L 79.335 14.432 C 79.335 14.432 79.361 13.76 79.517 13.036 L 81.177 5.173 L 85.845 5.173 L 82.111 18.493 L 77.107 18.493 L 75.602 12.337 C 75.42 11.612 75.343 10.914 75.343 10.914 L 75.291 10.914 C 75.291 10.914 75.214 11.612 75.032 12.338 L 73.527 18.493 L 68.47 18.493 L 64.734 5.173 Z M 101.97 5.172 L 106.275 5.172 L 106.275 7.422 C 106.275 7.863 106.222 8.251 106.222 8.251 L 106.275 8.251 C 106.845 6.44 108.531 4.94 110.528 4.94 C 110.787 4.94 111.046 4.991 111.046 4.991 L 111.046 9.389 C 111.046 9.389 110.682 9.312 110.138 9.312 C 109.074 9.312 107.337 9.647 106.688 11.638 C 106.532 12.13 106.455 12.725 106.455 13.448 L 106.455 18.491 L 101.969 18.491 L 101.969 5.173 L 101.97 5.173 Z M 113.792 8.898 L 112.08 8.898 L 112.08 5.406 L 113.922 5.406 L 113.922 1.578 L 118.279 1.578 L 118.279 5.406 L 121.08 5.406 L 121.08 8.898 L 118.279 8.898 L 118.279 12.985 C 118.279 14.485 119.809 14.691 120.665 14.691 C 121.029 14.691 121.262 14.667 121.262 14.667 L 121.262 18.546 C 121.262 18.546 120.768 18.623 120.042 18.623 C 117.916 18.623 113.792 18.055 113.792 13.58 Z M 123.452 0 L 127.938 0 L 127.938 5.846 C 127.938 6.519 127.886 6.985 127.886 6.985 L 127.938 6.985 C 128.69 5.664 130.246 4.863 132.01 4.863 C 134.706 4.863 136.807 6.106 136.807 9.854 L 136.807 18.494 L 132.321 18.494 L 132.321 10.683 C 132.321 9.441 131.828 8.924 130.843 8.924 C 129.469 8.924 128.561 9.725 128.171 10.889 C 127.989 11.406 127.938 11.975 127.938 12.596 L 127.938 18.493 L 123.452 18.493 Z M 139.307 19.709 C 139.307 19.709 140.033 20.201 140.681 20.201 C 141.407 20.201 142.366 19.995 142.833 18.857 L 143.092 18.234 L 137.414 5.173 L 142.497 5.173 L 144.469 11.303 C 144.702 12.027 144.962 13.372 144.962 13.372 L 145.014 13.372 C 145.014 13.372 145.273 12.105 145.455 11.381 L 147.14 5.172 L 152.041 5.172 L 146.57 19.915 C 145.455 22.889 143.121 23.925 140.995 23.925 C 139.232 23.925 137.883 22.993 137.883 22.993 Z M 93.245 9.006 C 94.934 9.006 96.309 10.378 96.309 12.062 C 96.309 13.747 94.934 15.118 93.245 15.118 C 91.556 15.118 90.181 13.747 90.181 12.062 C 90.181 10.378 91.555 9.006 93.245 9.006 Z M 93.245 5.009 C 89.34 5.009 86.173 8.167 86.173 12.062 C 86.173 15.957 89.34 19.115 93.245 19.115 C 97.15 19.115 100.316 15.957 100.316 12.062 C 100.316 8.167 97.15 5.009 93.245 5.009 Z M 153.936 12.381 C 152.247 12.381 150.872 13.752 150.872 15.437 C 150.872 17.121 152.247 18.493 153.936 18.493 C 155.625 18.493 157 17.121 157 15.437 C 157 13.752 155.625 12.381 153.936 12.381 Z" fill="currentColor"/>
</svg>
