<?xml version="1.0" encoding="UTF-8"?> <svg xmlns="http://www.w3.org/2000/svg" width="152" height="36" viewBox="0 0 152 36" fill="none"><path d="M59.7971 9.12689V13.0446H53.9342V28.3048H49.4409V13.0446H43.6055V9.12689H59.7971ZM68.9351 21.4282L73.4835 28.3048H68.5516L67.3737 26.3596L66.0307 24.0857L64.6886 26.3596L63.4556 28.3048H58.6064L63.1547 21.4282L58.9623 14.7707H63.8116L65.072 16.8254L66.0582 18.6884L67.0994 16.8254L68.3599 14.7707H73.0991L68.9351 21.4282ZM84.8754 27.7843C83.8159 28.314 82.6196 28.5787 81.2867 28.5787C79.8069 28.5787 78.6382 28.1678 77.7795 27.3459C76.9209 26.5057 76.4925 25.1632 76.4925 23.3185V18.1953H74.1908V14.7707H76.4925V11.4008L80.7656 10.935V14.7707H84.136V18.1953H80.7656V23.3185C80.7656 23.8664 80.9032 24.2774 81.1766 24.5514C81.4509 24.8071 81.8251 24.935 82.3003 24.935C82.8297 24.935 83.3507 24.8071 83.8617 24.5514L84.8754 27.7843ZM96.3536 28.7431C94.2895 28.7431 92.4722 28.3231 90.9017 27.4829C89.3485 26.6427 88.1431 25.4646 87.2854 23.9486C86.4451 22.4327 86.0249 20.6884 86.0249 18.7158C86.0249 16.7432 86.4542 14.999 87.312 13.483C88.189 11.9487 89.4036 10.7707 90.9558 9.94876C92.5089 9.10863 94.2804 8.68848 96.2711 8.68848C99.1021 8.68848 101.531 9.68392 103.559 11.6748L100.792 14.4419C99.5681 13.273 98.0975 12.6885 96.3811 12.6885C95.2298 12.6885 94.207 12.9442 93.3125 13.4556C92.4355 13.9487 91.7502 14.652 91.2576 15.5652C90.7824 16.4784 90.5448 17.5287 90.5448 18.7158C90.5448 19.903 90.7824 20.9532 91.2576 21.8665C91.7502 22.7797 92.4355 23.4921 93.3125 24.0035C94.207 24.4966 95.2298 24.7432 96.3811 24.7432C97.2939 24.7432 98.1709 24.5788 99.0113 24.25C99.8507 23.9213 100.582 23.4464 101.203 22.8254L103.833 25.7569C101.769 27.7478 99.2755 28.7431 96.3536 28.7431ZM119.762 14.7707V28.3048H116.036L115.763 26.6884C114.611 27.9487 113.114 28.5787 111.269 28.5787C110.009 28.5787 108.886 28.2865 107.9 27.7021C106.931 27.0994 106.173 26.2683 105.626 25.2089C105.078 24.1313 104.804 22.9076 104.804 21.5377C104.804 20.1679 105.078 18.9533 105.626 17.894C106.173 16.8163 106.931 15.9853 107.9 15.4008C108.886 14.7981 110.009 14.4967 111.269 14.4967C112.182 14.4967 113.022 14.661 113.789 14.9898C114.557 15.3004 115.214 15.7569 115.763 16.3597L116.036 14.7707H119.762ZM112.283 24.9623C113.232 24.9623 114.009 24.6519 114.611 24.0308C115.214 23.3916 115.516 22.5606 115.516 21.5377C115.516 20.5149 115.214 19.693 114.611 19.072C114.009 18.4327 113.232 18.1131 112.283 18.1131C111.333 18.1131 110.556 18.4327 109.954 19.072C109.369 19.7113 109.078 20.5332 109.078 21.5377C109.078 22.5423 109.369 23.3642 109.954 24.0035C110.556 24.6427 111.333 24.9623 112.283 24.9623ZM130.686 14.4693C131.307 14.4693 131.929 14.588 132.55 14.8254C133.171 15.0446 133.709 15.3734 134.166 15.8117L132.358 18.9624C131.974 18.7249 131.618 18.5515 131.289 18.4418C130.961 18.3323 130.614 18.2775 130.248 18.2775C129.335 18.2775 128.613 18.5697 128.084 19.1542C127.554 19.7386 127.289 20.5971 127.289 21.7295V28.3048H122.988V14.7707H126.742L127.07 16.4693C127.947 15.136 129.153 14.4693 130.686 14.4693ZM145.315 27.7843C144.255 28.314 143.059 28.5787 141.726 28.5787C140.246 28.5787 139.078 28.1678 138.219 27.3459C137.36 26.5057 136.931 25.1632 136.931 23.3185V18.1953H134.63V14.7707H136.931V11.4008L141.205 10.935V14.7707H144.575V18.1953H141.205V23.3185C141.205 23.8664 141.343 24.2774 141.616 24.5514C141.89 24.8071 142.265 24.935 142.74 24.935C143.269 24.935 143.79 24.8071 144.301 24.5514L145.315 27.7843Z" fill="white"></path><path d="M148.484 9.98145C147.923 9.98145 147.373 10.1479 146.906 10.4599C146.439 10.7719 146.076 11.2154 145.86 11.7343C145.646 12.2531 145.59 12.824 145.699 13.3748C145.809 13.9256 146.079 14.4315 146.476 14.8286C146.873 15.2257 147.38 15.4962 147.93 15.6057C148.48 15.7152 149.052 15.659 149.57 15.4441C150.089 15.2292 150.533 14.8653 150.844 14.3983C151.157 13.9314 151.323 13.3824 151.323 12.8208C151.323 12.448 151.25 12.0788 151.107 11.7343C150.965 11.3897 150.755 11.0767 150.492 10.813C150.228 10.5494 149.915 10.3402 149.57 10.1976C149.226 10.0548 148.857 9.98145 148.484 9.98145ZM148.484 15.0923C148.035 15.0923 147.595 14.9591 147.222 14.7095C146.848 14.46 146.558 14.1051 146.385 13.6901C146.214 13.275 146.169 12.8183 146.256 12.3777C146.344 11.937 146.56 11.5323 146.878 11.2146C147.195 10.897 147.601 10.6806 148.041 10.593C148.481 10.5053 148.938 10.5503 149.353 10.7222C149.768 10.8941 150.123 11.1853 150.373 11.5589C150.622 11.9324 150.755 12.3716 150.755 12.8208C150.755 13.4233 150.516 14.001 150.09 14.427C149.664 14.8531 149.087 15.0923 148.484 15.0923ZM148.555 13.1814H148.146V14.0985H147.632V11.6027H148.557C148.801 11.5878 149.042 11.657 149.239 11.7987C149.321 11.8678 149.385 11.9553 149.426 12.054C149.468 12.1527 149.486 12.2597 149.478 12.3665C149.483 12.5162 149.445 12.6643 149.367 12.7925C149.287 12.919 149.17 13.018 149.032 13.0764L149.571 14.0957V14.1241H149.021L148.555 13.207M148.146 12.7925H148.56C148.669 12.7985 148.776 12.763 148.858 12.693C148.896 12.6565 148.925 12.6121 148.944 12.5629C148.962 12.5139 148.968 12.4613 148.964 12.4091C148.968 12.3574 148.961 12.3055 148.945 12.2565C148.927 12.2076 148.9 12.1629 148.865 12.1252C148.823 12.0886 148.774 12.0609 148.722 12.0438C148.668 12.0266 148.613 12.0206 148.557 12.0258H148.146V12.7925Z" fill="white"></path><path d="M36.744 16.9448C36.7043 16.7273 36.6845 16.5099 36.6655 16.2924C36.606 15.8178 36.5465 15.3236 36.4482 14.849C35.796 11.5868 34.2761 8.70017 31.9264 6.28808C28.9047 3.20375 25.2128 1.38479 20.9084 0.850938C16.1494 0.297349 11.7856 1.34525 7.91546 4.01436C4.10459 6.64393 1.69561 10.2226 0.72803 14.6711C0.629349 15.1654 0.550334 15.6597 0.491074 16.1342C0.47132 16.3517 0.431896 16.589 0.392389 16.8064V17.9927V18.9219V18.9417C0.431896 19.1592 0.451566 19.3767 0.47132 19.5942C0.53058 20.0884 0.589841 20.5827 0.688523 21.077C1.18219 23.667 2.2682 26.0594 3.9268 28.1947C3.96631 28.2342 4.00582 28.2936 4.04532 28.333C3.90713 28.5308 3.61092 28.9064 2.97906 29.6578C2.90005 29.7566 2.84079 29.816 2.82112 29.8357C2.05099 30.7848 1.32037 31.7535 0.609591 32.7816C0.273868 33.2561 0.234364 33.79 0.491074 34.2645C0.78729 34.8378 1.4784 35.2333 2.14976 35.2333C5.74344 35.2333 9.39636 35.253 12.9309 35.2728C14.7474 35.2728 16.5443 35.2926 18.3612 35.2926H18.4397C22.7639 35.2926 26.6344 34.0075 29.9321 31.4767C33.4661 28.7681 35.6778 25.2092 36.4878 20.9188C36.5663 20.5234 36.606 20.128 36.6655 19.7326C36.6845 19.5546 36.7043 19.3767 36.744 19.1987V18.0124V17.0041V16.9448ZM29.4576 30.844C26.2988 33.2759 22.5862 34.5017 18.4397 34.5017H18.381C16.564 34.5017 14.7672 34.482 12.9506 34.482C9.41612 34.4622 5.76319 34.4424 2.16952 34.4424C1.79429 34.4424 1.37963 34.2051 1.20194 33.8888C1.0835 33.6713 1.12293 33.4539 1.28095 33.2166C1.35988 33.0979 1.4389 32.9991 1.51791 32.8805C1.79429 33.1573 2.22869 33.3352 2.62359 33.3352C7.97472 33.3154 13.306 33.3352 18.6571 33.3352C22.744 33.3352 26.4963 32.2676 29.8527 29.895C31.4917 28.7285 32.8735 27.3643 33.9207 25.8024C32.8149 27.7004 31.3338 29.4007 29.4576 30.844Z" fill="#0081FF"></path><path d="M14.3604 22.9996H12.2354L6.83789 10.248H8.96547L14.3604 22.9996Z" fill="white"></path><path d="M14.1767 27.1277C15.0887 27.1277 15.8279 26.3885 15.8279 25.4765C15.8279 24.5646 15.0887 23.8252 14.1767 23.8252C13.2647 23.8252 12.5254 24.5646 12.5254 25.4765C12.5254 26.3885 13.2647 27.1277 14.1767 27.1277Z" fill="white"></path><path d="M22.3407 27.1277C23.2532 27.1277 23.992 26.3885 23.992 25.4765C23.992 24.5646 23.2532 23.8252 22.3407 23.8252C21.4293 23.8252 20.6895 24.5646 20.6895 25.4765C20.6895 26.3885 21.4293 27.1277 22.3407 27.1277Z" fill="white"></path><path d="M18.0302 19.9724L17.1864 18.0459H13.4434L14.2845 19.9724H18.0302Z" fill="white"></path><path d="M16.5463 13.6427H19.4975L18.5959 11.5327H15.6445L16.5463 13.6427Z" fill="white"></path><path d="M12.9014 16.8532H16.6533L15.8186 14.835H12.0664L12.9014 16.8532Z" fill="white"></path><path d="M20.6687 13.6427H23.6245L22.7273 11.5327H19.7715L20.6687 13.6427Z" fill="white"></path><path d="M27.0565 18.7798L27.3863 18.0459H26.7441L27.0565 18.7798Z" fill="white"></path><path d="M19.9555 14.835H17.0215L17.8508 16.8532H20.7827L19.9555 14.835Z" fill="white"></path><path d="M22.6788 21.2568H19.7715L20.5305 22.9998H23.441L22.6788 21.2568Z" fill="white"></path><path d="M25.0014 16.8532L24.1561 14.835H21.1484L21.9916 16.8532H25.0014Z" fill="white"></path><path d="M18.5445 21.2568H14.8184L15.5881 22.9998H19.3135L18.5445 21.2568Z" fill="white"></path><path d="M15.37 13.6427L14.463 11.5327H10.6914L11.6012 13.6427H15.37Z" fill="white"></path><path d="M23.9004 21.2568L24.6612 22.9998H25.1153L25.9186 21.2568H23.9004Z" fill="white"></path><path d="M22.1577 19.9724L21.325 18.0459H18.3965L19.2292 19.9724H22.1577Z" fill="white"></path><path d="M25.5294 18.0459H22.5254L23.3744 19.9724H26.3784L25.5294 18.0459Z" fill="white"></path><path d="M25.3691 14.835L26.1942 16.8532H27.8892L28.7634 14.835H25.3691Z" fill="white"></path><path d="M23.9922 11.5327L24.8811 13.6427H29.2884L30.2303 11.5327H23.9922Z" fill="white"></path></svg> 